<svg id="Services_Card1Icon_DefaultState" xmlns="http://www.w3.org/2000/svg" xmlns:xlink="http://www.w3.org/1999/xlink" width="53.486" height="36.016" viewBox="0 0 53.486 36.016">
  <defs>
    <linearGradient id="linear-gradient" x1="0.936" x2="-0.569" gradientUnits="objectBoundingBox">
      <stop offset="0" stop-color="#03dee7"/>
      <stop offset="0.597" stop-color="#126cff"/>
      <stop offset="1" stop-color="#fefefe"/>
    </linearGradient>
  </defs>
  <path id="WEB_OUR_SERVICES_WEB_AND_MOBILE_DEVELOPMENT_icon:web_mobile_development_Icon_awesome-mobile-alt" data-name="WEB_OUR SERVICES_WEB AND MOBILE DEVELOPMENT_icon:web/mobile development_Icon awesome-mobile-alt" d="M19.125,0H3.375A3.376,3.376,0,0,0,0,3.375v29.25A3.376,3.376,0,0,0,3.375,36h15.75A3.376,3.376,0,0,0,22.5,32.625V3.375A3.376,3.376,0,0,0,19.125,0ZM11.25,33.75A2.25,2.25,0,1,1,13.5,31.5,2.248,2.248,0,0,1,11.25,33.75Zm7.875-7.594a.846.846,0,0,1-.844.844H4.219a.846.846,0,0,1-.844-.844V4.219a.846.846,0,0,1,.844-.844H18.281a.846.846,0,0,1,.844.844Z" fill="url(#linear-gradient)"/>
  <path id="WEB_OUR_SERVICES_WEB_AND_MOBILE_DEVELOPMENT_icon:web_mobile_development_Icon_material-web" data-name="WEB_OUR SERVICES_WEB AND MOBILE DEVELOPMENT_icon:web/mobile development_Icon material-web" d="M37.7,6H6.855C4.735,6,3.019,7.331,3.019,8.958L3,26.7c0,1.627,1.735,2.958,3.855,2.958H37.7c2.12,0,3.855-1.331,3.855-2.958V8.958C41.553,7.331,39.818,6,37.7,6ZM28.059,26.7H6.855V20.788h21.2Zm0-7.394H6.855V13.394h21.2ZM37.7,26.7H29.987V13.394H37.7Z" transform="translate(11.933 6.356)" fill="url(#linear-gradient)"/>
</svg>
