<svg xmlns="http://www.w3.org/2000/svg" width="2074" height="2038" viewBox="0 0 2074 2038">
  <g id="Services_FullBackground_Web" transform="translate(2228 -1053.75)">
    <rect id="Services_WhiteBackground_Web" width="1920" height="2038" transform="translate(-2190.059 1053.75)" fill="#fff"/>
    <g id="Services_Graphics_Web" transform="translate(-2074 49)">
      <g id="WEB_OUR_SERVICES_graphics_4" data-name="WEB_OUR SERVICES_graphics 4" transform="translate(832 1604)" opacity="0.3">
        <path id="Path_9" data-name="Path 9" d="M5053,2346.5H4605.53l-130.8-51.809H4150.145" transform="translate(-3965 -2286)" fill="none" stroke="#0162ff" stroke-width="1" opacity="0.5"/>
        <path id="Path_10" data-name="Path 10" d="M3972.045,2294.691h502.683l130.8,51.809h437.312" transform="translate(-3955 -2246.691)" fill="none" stroke="#0162ff" stroke-width="1" opacity="0.5"/>
        <circle id="Ellipse_9" data-name="Ellipse 9" cx="4" cy="4" r="4" transform="translate(644 48)" fill="#0162ff" opacity="0.5"/>
        <g id="Ellipse_12" data-name="Ellipse 12" transform="translate(0 38)" fill="#0162ff" stroke="#0162ff" stroke-width="1" opacity="0.5">
          <circle cx="8.5" cy="8.5" r="8.5" stroke="none"/>
          <circle cx="8.5" cy="8.5" r="8" fill="none"/>
        </g>
        <circle id="Ellipse_10" data-name="Ellipse 10" cx="4" cy="4" r="4" transform="translate(657 48)" fill="#0162ff" opacity="0.5"/>
        <circle id="Ellipse_11" data-name="Ellipse 11" cx="4" cy="4" r="4" transform="translate(669 48)" fill="#0162ff" opacity="0.5"/>
        <g id="Ellipse_13" data-name="Ellipse 13" transform="translate(169)" fill="none" stroke="#0162ff" stroke-width="1" opacity="0.5">
          <circle cx="8.5" cy="8.5" r="8.5" stroke="none"/>
          <circle cx="8.5" cy="8.5" r="8" fill="none"/>
        </g>
      </g>
      <g id="WEB_OUR_SERVICES_graphics_6" data-name="WEB_OUR SERVICES_graphics 6" transform="translate(-154 2483)" opacity="0.3">
        <path id="Path_9-2" data-name="Path 9" d="M4150.145,2346.5h447.47l130.8-51.809H5053" transform="translate(-4150.145 -2286)" fill="none" stroke="#0162ff" stroke-width="1" opacity="0.5"/>
        <path id="Path_10-2" data-name="Path 10" d="M5042.841,2294.691H4540.159l-130.8,51.809H3972.045" transform="translate(-3971.887 -2261.5)" fill="none" stroke="#0162ff" stroke-width="1" opacity="0.5"/>
        <circle id="Ellipse_9-2" data-name="Ellipse 9" cx="4" cy="4" r="4" transform="translate(436 48)" fill="#0162ff" opacity="0.5"/>
        <circle id="Ellipse_10-2" data-name="Ellipse 10" cx="4" cy="4" r="4" transform="translate(423 48)" fill="#0162ff" opacity="0.5"/>
        <circle id="Ellipse_11-2" data-name="Ellipse 11" cx="4" cy="4" r="4" transform="translate(411 48)" fill="#0162ff" opacity="0.5"/>
        <g id="Ellipse_13-2" data-name="Ellipse 13" transform="translate(902)" fill="none" stroke="#0162ff" stroke-width="1" opacity="0.5">
          <circle cx="8.5" cy="8.5" r="8.5" stroke="none"/>
          <circle cx="8.5" cy="8.5" r="8" fill="none"/>
        </g>
        <g id="Ellipse_12-2" data-name="Ellipse 12" transform="translate(1071 25)" fill="#0162ff" stroke="#0162ff" stroke-width="1" opacity="0.5">
          <circle cx="8.5" cy="8.5" r="8.5" stroke="none"/>
          <circle cx="8.5" cy="8.5" r="8" fill="none"/>
        </g>
      </g>
      <g id="WEB_OUR_SERVICES_graphics1" data-name="WEB_OUR SERVICES_graphics1" transform="translate(-116.059 1176.5)">
        <circle id="Ellipse_20" data-name="Ellipse 20" cx="4" cy="4" r="4" transform="translate(282.854 26.753)" fill="#0162ff" opacity="0.15"/>
        <circle id="Ellipse_21" data-name="Ellipse 21" cx="4" cy="4" r="4" transform="translate(295.854 26.753)" fill="#0162ff" opacity="0.15"/>
        <circle id="Ellipse_22" data-name="Ellipse 22" cx="4" cy="4" r="4" transform="translate(307.854 26.753)" fill="#0162ff" opacity="0.15"/>
        <path id="Path_15" data-name="Path 15" d="M4508.539,3505H3402.955l-111.263,44.906H3132.146" transform="translate(-3132.146 -3505)" fill="none" stroke="#0162ff" stroke-width="1" opacity="0.15"/>
        <path id="Path_17" data-name="Path 17" d="M3133,3583.494h162.891l115.461-48.284h130.156" transform="translate(-3132.146 -3509.247)" fill="none" stroke="#0162ff" stroke-width="1" opacity="0.15"/>
      </g>
      <g id="WEB_OUR_SERVICES_graphics_5" data-name="WEB_OUR SERVICES_graphics 5" transform="translate(1920 2279) rotate(180)" opacity="0.3">
        <path id="Path_9-3" data-name="Path 9" d="M5053,2346.5H4605.53l-130.8-51.809H4150.145" transform="translate(-3965 -2286)" fill="none" stroke="#0162ff" stroke-width="1" opacity="0.5"/>
        <path id="Path_10-3" data-name="Path 10" d="M3972.045,2294.691h502.683l130.8,51.809h437.312" transform="translate(-3955 -2261.5)" fill="none" stroke="#0162ff" stroke-width="1" opacity="0.5"/>
        <circle id="Ellipse_9-3" data-name="Ellipse 9" cx="4" cy="4" r="4" transform="translate(644 48)" fill="#0162ff" opacity="0.5"/>
        <g id="Ellipse_12-3" data-name="Ellipse 12" transform="translate(0 25)" fill="#0162ff" stroke="#0162ff" stroke-width="1" opacity="0.5">
          <circle cx="8.5" cy="8.5" r="8.5" stroke="none"/>
          <circle cx="8.5" cy="8.5" r="8" fill="none"/>
        </g>
        <circle id="Ellipse_10-3" data-name="Ellipse 10" cx="4" cy="4" r="4" transform="translate(657 48)" fill="#0162ff" opacity="0.5"/>
        <circle id="Ellipse_11-3" data-name="Ellipse 11" cx="4" cy="4" r="4" transform="translate(669 48)" fill="#0162ff" opacity="0.5"/>
        <g id="Ellipse_13-3" data-name="Ellipse 13" transform="translate(169)" fill="none" stroke="#0162ff" stroke-width="1" opacity="0.5">
          <circle cx="8.5" cy="8.5" r="8.5" stroke="none"/>
          <circle cx="8.5" cy="8.5" r="8" fill="none"/>
        </g>
      </g>
      <circle id="Ellipse_99" data-name="Ellipse 99" cx="4" cy="4" r="4" transform="translate(1260.334 1161.5)" fill="#0162ff" opacity="0.3"/>
      <g id="WEB_OUR_SERVICES_graphics_2" data-name="WEB_OUR SERVICES_graphics 2" transform="translate(1263.146 1065.5)" opacity="0.3">
        <g id="Group_17" data-name="Group 17" transform="translate(-1206 -1040.5)" opacity="0.5">
          <circle id="Ellipse_20-2" data-name="Ellipse 20" cx="4" cy="4" r="4" transform="translate(1572 1060.5)" fill="#0162ff" opacity="0.5"/>
          <circle id="Ellipse_21-2" data-name="Ellipse 21" cx="4" cy="4" r="4" transform="translate(1559 1060.5)" fill="#0162ff" opacity="0.5"/>
          <circle id="Ellipse_22-2" data-name="Ellipse 22" cx="4" cy="4" r="4" transform="translate(1547 1060.5)" fill="#0162ff" opacity="0.5"/>
          <path id="Path_15-2" data-name="Path 15" d="M3132.146,3505h386.045l111.263,44.906H3789" transform="translate(-1926.146 -2464.5)" fill="none" stroke="#0162ff" stroke-width="1" opacity="0.5"/>
          <path id="Path_17-2" data-name="Path 17" d="M3541.509,3583.494H3378.618l-115.461-48.284H3133" transform="translate(-1679.509 -2464.5)" fill="none" stroke="#0162ff" stroke-width="1" opacity="0.5"/>
          <path id="Path_18" data-name="Path 18" d="M3325.281,3638.076H3133" transform="translate(-1463.281 -2464.5)" fill="none" stroke="#0162ff" stroke-width="1" opacity="0.5"/>
          <circle id="Ellipse_23" data-name="Ellipse 23" cx="4" cy="4" r="4" transform="translate(1850 1176.5)" fill="#0162ff" opacity="0.5"/>
          <circle id="Ellipse_24" data-name="Ellipse 24" cx="4" cy="4" r="4" transform="translate(1837 1176.5)" fill="#0162ff" opacity="0.5"/>
          <circle id="Ellipse_25" data-name="Ellipse 25" cx="4" cy="4" r="4" transform="translate(1825 1176.5)" fill="#0162ff" opacity="0.5"/>
          <circle id="Ellipse_26" data-name="Ellipse 26" cx="4" cy="4" r="4" transform="translate(1662 1169.5)" fill="#0162ff" opacity="0.5"/>
        </g>
      </g>
    </g>
  </g>
</svg>
