<svg xmlns="http://www.w3.org/2000/svg" xmlns:xlink="http://www.w3.org/1999/xlink" width="36" height="30.816" viewBox="0 0 36 30.816">
  <defs>
    <linearGradient id="linear-gradient" x1="0.936" x2="-0.569" gradientUnits="objectBoundingBox">
      <stop offset="0" stop-color="#03dee7"/>
      <stop offset="0.597" stop-color="#126cff"/>
      <stop offset="1" stop-color="#fefefe"/>
    </linearGradient>
  </defs>
  <path id="Services_Card8Icon_DefaultState" d="M9.816,2.5a.835.835,0,0,0-1.2,0L4.144,7.016l-1.6-1.578a.835.835,0,0,0-1.2,0L.248,6.559a.865.865,0,0,0,0,1.213l3.346,3.381a.889.889,0,0,0,1.238,0l1.1-1.114,5.077-5.149a.871.871,0,0,0,.006-1.213Zm0,11.355a.835.835,0,0,0-1.2,0L4.144,18.4l-1.6-1.576a.835.835,0,0,0-1.2,0l-1.1,1.119a.865.865,0,0,0,0,1.213l3.338,3.388a.889.889,0,0,0,1.238,0l1.1-1.119L11,16.273a.865.865,0,0,0,.006-1.205ZM4.5,26.217a3.424,3.424,0,0,0,0,6.848,3.424,3.424,0,0,0,0-6.848Zm30.375,1.141H14.625A1.133,1.133,0,0,0,13.5,28.5v2.283a1.133,1.133,0,0,0,1.125,1.141h20.25A1.133,1.133,0,0,0,36,30.782V28.5A1.133,1.133,0,0,0,34.875,27.358Zm0-22.825H14.625A1.133,1.133,0,0,0,13.5,5.674V7.956A1.133,1.133,0,0,0,14.625,9.1h20.25A1.133,1.133,0,0,0,36,7.956V5.674A1.133,1.133,0,0,0,34.875,4.533Zm0,11.413H14.625A1.133,1.133,0,0,0,13.5,17.086v2.283a1.133,1.133,0,0,0,1.125,1.141h20.25A1.133,1.133,0,0,0,36,19.369V17.086A1.133,1.133,0,0,0,34.875,15.945Z" transform="translate(0 -2.248)" fill="url(#linear-gradient)"/>
</svg>
