<svg id="CULTURE" xmlns="http://www.w3.org/2000/svg" width="83.11" height="85.455" viewBox="0 0 83.11 85.455">
  <path id="Path_22" data-name="Path 22" d="M4093.425,2445.818l37.457,20.71V2508.1l-37.457,21.1h0l-37.672-21.1v-41.572Z" transform="translate(-4049.502 -2444.318)" fill="none" stroke="#ebb22d" stroke-width="1"/>
  <circle id="Ellipse_29" data-name="Ellipse 29" cx="2" cy="2" r="2" transform="translate(79.11 61)" fill="#2db67e"/>
  <circle id="Ellipse_31" data-name="Ellipse 31" cx="2" cy="2" r="2" transform="translate(79.11 20)" fill="#2db67e"/>
  <circle id="Ellipse_30" data-name="Ellipse 30" cx="2" cy="2" r="2" transform="translate(41.941)" fill="#2db67e"/>
  <path id="Path_23" data-name="Path 23" d="M4062.281,2445.818l6.491,3.606v7.239l-6.491,3.674h0l-6.529-3.674v-7.239Z" transform="translate(-4055.752 -2410.207)" fill="#2db67e"/>
  <path id="Icon_map-lawyer" data-name="Icon map-lawyer" d="M.269,27.162c.383,3.4,2.881,5.947,5.838,5.947s5.455-2.545,5.838-5.947ZM32.081,40.918a1.151,1.151,0,0,1-.265.75.854.854,0,0,1-.645.312H14.159a1.068,1.068,0,0,1,0-2.112H31.17A.988.988,0,0,1,32.081,40.918Zm-18.734,1.6H31.982v3.055H13.347Zm20.3-15.358c.381,3.4,2.879,5.953,5.838,5.954s5.456-2.549,5.835-5.954ZM45,25.036l-4.781-7.643h2.556A1.233,1.233,0,0,0,43.9,16.071a1.226,1.226,0,0,0-1.122-1.31H29.235A7.069,7.069,0,0,0,24.1,9.753V5.629a1.233,1.233,0,0,0-1.135-1.319l-.106.014-.106-.014a1.058,1.058,0,0,0-.8.385,1.427,1.427,0,0,0-.33.933V9.751a7.065,7.065,0,0,0-5.136,5.008H2.94a1.227,1.227,0,0,0-1.121,1.31A1.234,1.234,0,0,0,2.94,17.391H5.379L.6,25.034H0v1.412H12.217V25.034h-.6l-4.78-7.64h11.1A6.451,6.451,0,0,1,18,16.522a1.422,1.422,0,0,0,.066-.405,5.3,5.3,0,0,1,3.552-4.162V26.449H21.57c-.1,5.452-2.332,10.207-5.648,12.879H29.795c-3.316-2.672-5.549-7.427-5.653-12.879H24.1V11.954a5.3,5.3,0,0,1,3.551,4.162,1.528,1.528,0,0,0,.068.405,6.789,6.789,0,0,1,.059.872h10.98l-4.782,7.643h-.6v1.412H45.592V25.036Zm-39.377,0H1.805l3.816-6.1v6.1Zm.977,0v-6.1l3.816,6.1H6.6Zm32.4,0H35.18L39,18.935Zm.972,0v-6.1l3.821,6.1ZM7.241,12.921A1.228,1.228,0,0,1,6.108,14.2a1.228,1.228,0,0,1-1.133-1.278A1.239,1.239,0,0,1,6.11,11.6a1.237,1.237,0,0,1,1.131,1.319Zm33.377-.07a1.227,1.227,0,0,1-1.133,1.311,1.051,1.051,0,0,1-.8-.381,1.42,1.42,0,0,1-.331-.93,1.377,1.377,0,0,1,.553-1.183,1,1,0,0,1,1.16,0A1.377,1.377,0,0,1,40.618,12.852Z" transform="translate(21.157 15.689)" fill="#df1d5a"/>
</svg>
