<svg xmlns="http://www.w3.org/2000/svg" width="83.5" height="85.455" viewBox="0 0 83.5 85.455">
  <g id="focus" transform="translate(-238.951 -3871)">
    <path id="Path_22" data-name="Path 22" d="M4093.244,2445.818l37.277,20.71V2508.1l-37.277,21.1h0l-37.492-21.1v-41.572Z" transform="translate(-3809.802 1426.682)" fill="none" stroke="#ebb22d" stroke-width="1"/>
    <circle id="Ellipse_29" data-name="Ellipse 29" cx="2" cy="2" r="2" transform="translate(318.451 3932)" fill="#2db67e"/>
    <circle id="Ellipse_31" data-name="Ellipse 31" cx="2" cy="2" r="2" transform="translate(318.451 3891)" fill="#2db67e"/>
    <circle id="Ellipse_30" data-name="Ellipse 30" cx="2" cy="2" r="2" transform="translate(281.451 3871)" fill="#2db67e"/>
    <path id="Path_23" data-name="Path 23" d="M4062.363,2445.818l6.573,3.652v7.331l-6.573,3.72h0l-6.61-3.72v-7.331Z" transform="translate(-3816.801 1461.021)" fill="#2db67e"/>
    <path id="Icon_metro-target" data-name="Icon metro-target" d="M56.594,25.563H51.27A22,22,0,0,0,32.959,7.253V1.928H26.206V7.253A22,22,0,0,0,7.9,25.563H2.571v6.753H7.9A22,22,0,0,0,26.206,50.627v5.324h6.753V50.627A22,22,0,0,0,51.27,32.316h5.324V25.563Zm-12.2,0H39.135a10.157,10.157,0,0,0-6.176-6.176V14.124A15.244,15.244,0,0,1,44.4,25.563ZM29.582,32.316a3.376,3.376,0,1,1,3.376-3.376A3.376,3.376,0,0,1,29.582,32.316ZM26.206,14.124v5.263a10.156,10.156,0,0,0-6.176,6.176H14.767A15.244,15.244,0,0,1,26.206,14.124ZM14.767,32.316H20.03a10.156,10.156,0,0,0,6.176,6.176v5.263A15.244,15.244,0,0,1,14.767,32.316ZM32.959,43.755V38.492a10.157,10.157,0,0,0,6.176-6.176H44.4A15.244,15.244,0,0,1,32.959,43.755Z" transform="translate(253.869 3885.25)" fill="#df1d5a"/>
  </g>
</svg>
