<svg id="quality" xmlns="http://www.w3.org/2000/svg" width="83.031" height="85.456" viewBox="0 0 83.031 85.456">
  <path id="Path_22" data-name="Path 22" d="M4093.244,2445.818l37.277,20.71V2508.1l-37.277,21.1h0l-37.492-21.1v-41.572Z" transform="translate(-4049.221 -2444.318)" fill="none" stroke="#ebb22d" stroke-width="1"/>
  <circle id="Ellipse_29" data-name="Ellipse 29" cx="2" cy="2" r="2" transform="translate(79.031 61)" fill="#2db67e"/>
  <circle id="Ellipse_31" data-name="Ellipse 31" cx="2" cy="2" r="2" transform="translate(79.031 20)" fill="#2db67e"/>
  <circle id="Ellipse_30" data-name="Ellipse 30" cx="2" cy="2" r="2" transform="translate(42.031)" fill="#2db67e"/>
  <path id="Path_23" data-name="Path 23" d="M4062.3,2445.818l6.513,3.618v7.263l-6.513,3.686h0l-6.55-3.686v-7.263Z" transform="translate(-4055.752 -2408.513)" fill="#2db67e"/>
  <g id="Group_9" data-name="Group 9" transform="translate(22.032 17.37)">
    <path id="Icon_awesome-hand-holding" data-name="Icon awesome-hand-holding" d="M40.606,23.305a1.9,1.9,0,0,0-3.06,0l-6.637,7.349a3.868,3.868,0,0,1-2.873,1.392h-8.5c-.632,0-1.149-.716-1.149-1.591s.517-1.591,1.149-1.591h5.624a2.722,2.722,0,0,0,2.392-2.645c.237-1.989-.869-3.719-2.27-3.719H13.792a7.174,7.174,0,0,0-5.323,2.615l-3.34,3.749H1.149C.517,28.864,0,29.58,0,30.455V40c0,.875.517,1.591,1.149,1.591H26.779A3.892,3.892,0,0,0,29.652,40.2L40.513,28.168A4.026,4.026,0,0,0,40.606,23.305Z" transform="translate(4.819 2.407)" fill="#df1d5a" stroke="#df1d5a" stroke-width="1"/>
    <path id="Icon_ionic-ios-settings" data-name="Icon ionic-ios-settings" d="M21.169,13.585a2.338,2.338,0,0,1,1.5-2.181,9.268,9.268,0,0,0-1.121-2.7,2.369,2.369,0,0,1-.951.2,2.333,2.333,0,0,1-2.134-3.284,9.239,9.239,0,0,0-2.7-1.121,2.336,2.336,0,0,1-4.363,0A9.268,9.268,0,0,0,8.7,5.621,2.333,2.333,0,0,1,6.568,8.905a2.292,2.292,0,0,1-.951-.2A9.472,9.472,0,0,0,4.5,11.408a2.337,2.337,0,0,1,0,4.363,9.268,9.268,0,0,0,1.121,2.7,2.334,2.334,0,0,1,3.08,3.08,9.322,9.322,0,0,0,2.7,1.121,2.332,2.332,0,0,1,4.353,0,9.268,9.268,0,0,0,2.7-1.121,2.336,2.336,0,0,1,3.08-3.08,9.322,9.322,0,0,0,1.121-2.7A2.349,2.349,0,0,1,21.169,13.585Zm-7.542,3.781a3.785,3.785,0,1,1,3.785-3.785A3.784,3.784,0,0,1,13.627,17.365Z" transform="translate(21.007 2.233)" fill="#df1d5a"/>
    <g id="Icon_feather-settings" data-name="Icon feather-settings">
      <path id="Path_20" data-name="Path 20" d="M15.309,14.4a.9.9,0,1,1-.9-.9A.9.9,0,0,1,15.309,14.4Z" transform="translate(-3.034 -3.034)" stroke="#df1d5a" stroke-linecap="round" stroke-linejoin="round" stroke-width="3"/>
      <path id="Path_21" data-name="Path 21" d="M20.519,15.971a1.706,1.706,0,0,0,.341,1.881l.062.062A2.068,2.068,0,1,1,18,20.84l-.062-.062A1.719,1.719,0,0,0,15.02,22v.176a2.067,2.067,0,0,1-4.135,0V22.08a1.706,1.706,0,0,0-1.116-1.561,1.706,1.706,0,0,0-1.881.341l-.062.062A2.068,2.068,0,1,1,4.9,18l.062-.062a1.719,1.719,0,0,0-1.22-2.915H3.567a2.067,2.067,0,1,1,0-4.135H3.66A1.706,1.706,0,0,0,5.221,9.769,1.706,1.706,0,0,0,4.88,7.888l-.062-.062A2.068,2.068,0,1,1,7.743,4.9l.062.062A1.706,1.706,0,0,0,9.687,5.3h.083A1.706,1.706,0,0,0,10.8,3.743V3.567a2.067,2.067,0,1,1,4.135,0V3.66a1.719,1.719,0,0,0,2.915,1.22l.062-.062A2.068,2.068,0,1,1,20.84,7.743l-.062.062a1.706,1.706,0,0,0-.341,1.881v.083A1.706,1.706,0,0,0,22,10.8h.176a2.067,2.067,0,1,1,0,4.135H22.08a1.706,1.706,0,0,0-1.561,1.034Z" transform="translate(-1.5 -1.5)" fill="none" stroke="#df1d5a" stroke-linecap="round" stroke-linejoin="round" stroke-width="3"/>
    </g>
  </g>
</svg>
