<svg xmlns="http://www.w3.org/2000/svg" width="944.149" height="861.479" viewBox="0 0 944.149 861.479">
  <g id="triangles" transform="translate(-359.083 399.291) rotate(-28)" opacity="0.5">
    <g id="Polygon_58" data-name="Polygon 58" transform="translate(529.22 674.997) rotate(45)">
      <path d="M 46.39657592773438 51.5 L 16.60342407226562 51.5 L 1.74493408203125 26.5 L 16.60342407226562 1.5 L 46.39657592773438 1.5 L 61.25506591796875 26.5 L 46.39657592773438 51.5 Z" stroke="none"/>
      <path d="M 17.45685195922852 3 L 3.489871978759766 26.5 L 17.45685195922852 50 L 45.54314804077148 50 L 59.51012802124023 26.5 L 45.54314804077148 3 L 17.45685195922852 3 M 15.75 0 L 47.25 0 L 63 26.5 L 47.25 53 L 15.75 53 L 0 26.5 L 15.75 0 Z" stroke="none" fill="#ebedf5"/>
    </g>
    <g id="Polygon_59" data-name="Polygon 59" transform="translate(627.792 648.197) rotate(45)">
      <path d="M 46.39657592773438 51.5 L 16.60342407226562 51.5 L 1.74493408203125 26.5 L 16.60342407226562 1.5 L 46.39657592773438 1.5 L 61.25506591796875 26.5 L 46.39657592773438 51.5 Z" stroke="none"/>
      <path d="M 17.45685195922852 3 L 3.489871978759766 26.5 L 17.45685195922852 50 L 45.54314804077148 50 L 59.51012802124023 26.5 L 45.54314804077148 3 L 17.45685195922852 3 M 15.75 0 L 47.25 0 L 63 26.5 L 47.25 53 L 15.75 53 L 0 26.5 L 15.75 0 Z" stroke="none" fill="#df1d5a"/>
    </g>
    <g id="Polygon_46" data-name="Polygon 46" transform="translate(673.404 692.746) rotate(45)" fill="#2db67e">
      <path d="M 46.39657592773438 51.5 L 16.60342407226562 51.5 L 1.74493408203125 26.5 L 16.60342407226562 1.5 L 46.39657592773438 1.5 L 61.25506591796875 26.5 L 46.39657592773438 51.5 Z" stroke="none"/>
      <path d="M 17.45685195922852 3 L 3.489871978759766 26.5 L 17.45685195922852 50 L 45.54314804077148 50 L 59.51012802124023 26.5 L 45.54314804077148 3 L 17.45685195922852 3 M 15.75 0 L 47.25 0 L 63 26.5 L 47.25 53 L 15.75 53 L 0 26.5 L 15.75 0 Z" stroke="none" fill="#2db67e"/>
    </g>
    <g id="Polygon_55" data-name="Polygon 55" transform="translate(606.289 760.745) rotate(45)" fill="#df1d5a">
      <path d="M 46.39657592773438 51.5 L 16.60342407226562 51.5 L 1.74493408203125 26.5 L 16.60342407226562 1.5 L 46.39657592773438 1.5 L 61.25506591796875 26.5 L 46.39657592773438 51.5 Z" stroke="none"/>
      <path d="M 17.45685195922852 3 L 3.489871978759766 26.5 L 17.45685195922852 50 L 45.54314804077148 50 L 59.51012802124023 26.5 L 45.54314804077148 3 L 17.45685195922852 3 M 15.75 0 L 47.25 0 L 63 26.5 L 47.25 53 L 15.75 53 L 0 26.5 L 15.75 0 Z" stroke="none" fill="#df1d5a"/>
    </g>
    <g id="Polygon_64" data-name="Polygon 64" transform="translate(738.245 615.516) rotate(45)">
      <path d="M 46.39657592773438 51.5 L 16.60342407226562 51.5 L 1.74493408203125 26.5 L 16.60342407226562 1.5 L 46.39657592773438 1.5 L 61.25506591796875 26.5 L 46.39657592773438 51.5 Z" stroke="none"/>
      <path d="M 17.45685195922852 3 L 3.489871978759766 26.5 L 17.45685195922852 50 L 45.54314804077148 50 L 59.51012802124023 26.5 L 45.54314804077148 3 L 17.45685195922852 3 M 15.75 0 L 47.25 0 L 63 26.5 L 47.25 53 L 15.75 53 L 0 26.5 L 15.75 0 Z" stroke="none" fill="#ebb22d"/>
    </g>
    <g id="Polygon_70" data-name="Polygon 70" transform="matrix(0.875, -0.485, 0.485, 0.875, 843.003, 587.24)">
      <path d="M 46.39657592773438 51.5 L 16.60342407226562 51.5 L 1.74493408203125 26.5 L 16.60342407226562 1.5 L 46.39657592773438 1.5 L 61.25506591796875 26.5 L 46.39657592773438 51.5 Z" stroke="none"/>
      <path d="M 17.45685195922852 3 L 3.489871978759766 26.5 L 17.45685195922852 50 L 45.54314804077148 50 L 59.51012802124023 26.5 L 45.54314804077148 3 L 17.45685195922852 3 M 15.75 0 L 47.25 0 L 63 26.5 L 47.25 53 L 15.75 53 L 0 26.5 L 15.75 0 Z" stroke="none" fill="#ebb22d"/>
    </g>
    <g id="Polygon_54" data-name="Polygon 54" transform="translate(710.416 788.811) rotate(45)">
      <path d="M 46.39657592773438 51.5 L 16.60342407226562 51.5 L 1.74493408203125 26.5 L 16.60342407226562 1.5 L 46.39657592773438 1.5 L 61.25506591796875 26.5 L 46.39657592773438 51.5 Z" stroke="none"/>
      <path d="M 17.45685195922852 3 L 3.489871978759766 26.5 L 17.45685195922852 50 L 45.54314804077148 50 L 59.51012802124023 26.5 L 45.54314804077148 3 L 17.45685195922852 3 M 15.75 0 L 47.25 0 L 63 26.5 L 47.25 53 L 15.75 53 L 0 26.5 L 15.75 0 Z" stroke="none" fill="#ebedf5"/>
    </g>
    <g id="Polygon_41" data-name="Polygon 41" transform="translate(786.782 717.794) rotate(45)" fill="#ebedf5">
      <path d="M 46.39657592773438 51.5 L 16.60342407226562 51.5 L 1.74493408203125 26.5 L 16.60342407226562 1.5 L 46.39657592773438 1.5 L 61.25506591796875 26.5 L 46.39657592773438 51.5 Z" stroke="none"/>
      <path d="M 17.45685195922852 3 L 3.489871978759766 26.5 L 17.45685195922852 50 L 45.54314804077148 50 L 59.51012802124023 26.5 L 45.54314804077148 3 L 17.45685195922852 3 M 15.75 0 L 47.25 0 L 63 26.5 L 47.25 53 L 15.75 53 L 0 26.5 L 15.75 0 Z" stroke="none" fill="#ebedf5"/>
    </g>
    <g id="Polygon_62" data-name="Polygon 62" transform="translate(859.125 641.082) rotate(45)" fill="#df1d5a">
      <path d="M 46.39657592773438 51.5 L 16.60342407226562 51.5 L 1.74493408203125 26.5 L 16.60342407226562 1.5 L 46.39657592773438 1.5 L 61.25506591796875 26.5 L 46.39657592773438 51.5 Z" stroke="none"/>
      <path d="M 17.45685195922852 3 L 3.489871978759766 26.5 L 17.45685195922852 50 L 45.54314804077148 50 L 59.51012802124023 26.5 L 45.54314804077148 3 L 17.45685195922852 3 M 15.75 0 L 47.25 0 L 63 26.5 L 47.25 53 L 15.75 53 L 0 26.5 L 15.75 0 Z" stroke="none" fill="#df1d5a"/>
    </g>
    <g id="Polygon_106" data-name="Polygon 106" transform="matrix(0.875, -0.485, 0.485, 0.875, 861.745, 766.328)">
      <path d="M 46.39657592773438 51.5 L 16.60342407226562 51.5 L 1.74493408203125 26.5 L 16.60342407226562 1.5 L 46.39657592773438 1.5 L 61.25506591796875 26.5 L 46.39657592773438 51.5 Z" stroke="none"/>
      <path d="M 17.45685195922852 3 L 3.489871978759766 26.5 L 17.45685195922852 50 L 45.54314804077148 50 L 59.51012802124023 26.5 L 45.54314804077148 3 L 17.45685195922852 3 M 15.75 0 L 47.25 0 L 63 26.5 L 47.25 53 L 15.75 53 L 0 26.5 L 15.75 0 Z" stroke="none" fill="#ebb22d"/>
    </g>
    <g id="Polygon_33" data-name="Polygon 33" transform="translate(815.541 825.421) rotate(45)" fill="#2db67e">
      <path d="M 46.96551895141602 52.5 L 16.03448104858398 52.5 L 0.5816500186920166 26.5 L 16.03448104858398 0.5 L 46.96551895141602 0.5 L 62.41835021972656 26.5 L 46.96551895141602 52.5 Z" stroke="none"/>
      <path d="M 16.31894302368164 1 L 1.163284301757812 26.5 L 16.31894302368164 52 L 46.68105316162109 52 L 61.83671569824219 26.5 L 46.68105316162109 1 L 16.31894302368164 1 M 15.75 0 L 47.25 0 L 63 26.5 L 47.25 53 L 15.75 53 L 0 26.5 L 15.75 0 Z" stroke="none" fill="#2db67e"/>
    </g>
    <g id="Polygon_71" data-name="Polygon 71" transform="matrix(0.875, -0.485, 0.485, 0.875, 911.134, 674.188)" fill="#2db67e">
      <path d="M 46.39657592773438 51.5 L 16.60342407226562 51.5 L 1.74493408203125 26.5 L 16.60342407226562 1.5 L 46.39657592773438 1.5 L 61.25506591796875 26.5 L 46.39657592773438 51.5 Z" stroke="none"/>
      <path d="M 17.45685195922852 3 L 3.489871978759766 26.5 L 17.45685195922852 50 L 45.54314804077148 50 L 59.51012802124023 26.5 L 45.54314804077148 3 L 17.45685195922852 3 M 15.75 0 L 47.25 0 L 63 26.5 L 47.25 53 L 15.75 53 L 0 26.5 L 15.75 0 Z" stroke="none" fill="#2db67e"/>
    </g>
    <g id="Polygon_74" data-name="Polygon 74" transform="matrix(0.875, -0.485, 0.485, 0.875, 963.656, 563.152)" fill="#ebb22d">
      <path d="M 46.39657592773438 51.5 L 16.60342407226562 51.5 L 1.74493408203125 26.5 L 16.60342407226562 1.5 L 46.39657592773438 1.5 L 61.25506591796875 26.5 L 46.39657592773438 51.5 Z" stroke="none"/>
      <path d="M 17.45685195922852 3 L 3.489871978759766 26.5 L 17.45685195922852 50 L 45.54314804077148 50 L 59.51012802124023 26.5 L 45.54314804077148 3 L 17.45685195922852 3 M 15.75 0 L 47.25 0 L 63 26.5 L 47.25 53 L 15.75 53 L 0 26.5 L 15.75 0 Z" stroke="none" fill="#ebb22d"/>
    </g>
    <g id="Polygon_81" data-name="Polygon 81" transform="matrix(0.875, -0.485, 0.485, 0.875, 1078.919, 562.152)" fill="#2db67e">
      <path d="M 46.96551895141602 52.5 L 16.03448104858398 52.5 L 0.5816500186920166 26.5 L 16.03448104858398 0.5 L 46.96551895141602 0.5 L 62.41835021972656 26.5 L 46.96551895141602 52.5 Z" stroke="none"/>
      <path d="M 16.31894302368164 1 L 1.163284301757812 26.5 L 16.31894302368164 52 L 46.68105316162109 52 L 61.83671569824219 26.5 L 46.68105316162109 1 L 16.31894302368164 1 M 15.75 0 L 47.25 0 L 63 26.5 L 47.25 53 L 15.75 53 L 0 26.5 L 15.75 0 Z" stroke="none" fill="#2db67e"/>
    </g>
    <g id="Polygon_77" data-name="Polygon 77" transform="matrix(0.875, -0.485, 0.485, 0.875, 959.779, 748.337)">
      <path d="M 46.39657592773438 51.5 L 16.60342407226562 51.5 L 1.74493408203125 26.5 L 16.60342407226562 1.5 L 46.39657592773438 1.5 L 61.25506591796875 26.5 L 46.39657592773438 51.5 Z" stroke="none"/>
      <path d="M 17.45685195922852 3 L 3.489871978759766 26.5 L 17.45685195922852 50 L 45.54314804077148 50 L 59.51012802124023 26.5 L 45.54314804077148 3 L 17.45685195922852 3 M 15.75 0 L 47.25 0 L 63 26.5 L 47.25 53 L 15.75 53 L 0 26.5 L 15.75 0 Z" stroke="none" fill="#df1d5a"/>
    </g>
    <g id="Polygon_76" data-name="Polygon 76" transform="matrix(0.875, -0.485, 0.485, 0.875, 1009.327, 660.189)">
      <path d="M 46.39657592773438 51.5 L 16.60342407226562 51.5 L 1.74493408203125 26.5 L 16.60342407226562 1.5 L 46.39657592773438 1.5 L 61.25506591796875 26.5 L 46.39657592773438 51.5 Z" stroke="none"/>
      <path d="M 17.45685195922852 3 L 3.489871978759766 26.5 L 17.45685195922852 50 L 45.54314804077148 50 L 59.51012802124023 26.5 L 45.54314804077148 3 L 17.45685195922852 3 M 15.75 0 L 47.25 0 L 63 26.5 L 47.25 53 L 15.75 53 L 0 26.5 L 15.75 0 Z" stroke="none" fill="#df1d5a"/>
    </g>
    <g id="Polygon_75" data-name="Polygon 75" transform="matrix(0.875, -0.485, 0.485, 0.875, 1024, 455.453)">
      <path d="M 46.39657592773438 51.5 L 16.60342407226562 51.5 L 1.74493408203125 26.5 L 16.60342407226562 1.5 L 46.39657592773438 1.5 L 61.25506591796875 26.5 L 46.39657592773438 51.5 Z" stroke="none"/>
      <path d="M 17.45685195922852 3 L 3.489871978759766 26.5 L 17.45685195922852 50 L 45.54314804077148 50 L 59.51012802124023 26.5 L 45.54314804077148 3 L 17.45685195922852 3 M 15.75 0 L 47.25 0 L 63 26.5 L 47.25 53 L 15.75 53 L 0 26.5 L 15.75 0 Z" stroke="none" fill="#2db67e"/>
    </g>
    <g id="Polygon_72" data-name="Polygon 72" transform="matrix(0.875, -0.485, 0.485, 0.875, 906.513, 473.238)">
      <path d="M 46.39657592773438 51.5 L 16.60342407226562 51.5 L 1.74493408203125 26.5 L 16.60342407226562 1.5 L 46.39657592773438 1.5 L 61.25506591796875 26.5 L 46.39657592773438 51.5 Z" stroke="none"/>
      <path d="M 17.45685195922852 3 L 3.489871978759766 26.5 L 17.45685195922852 50 L 45.54314804077148 50 L 59.51012802124023 26.5 L 45.54314804077148 3 L 17.45685195922852 3 M 15.75 0 L 47.25 0 L 63 26.5 L 47.25 53 L 15.75 53 L 0 26.5 L 15.75 0 Z" stroke="none" fill="#df1d5a"/>
    </g>
    <g id="Connection" transform="matrix(0.866, -0.5, 0.5, 0.866, 408.203, -151.365)" opacity="0.65">
      <g id="Path_983" data-name="Path 983" transform="matrix(0.07, 0.998, -0.998, 0.07, 257.913, 809.938)" fill="none">
        <path d="M50.916,7.155a4,4,0,0,1,7.155,0L72.628,36.269l33.465,66.93a4,4,0,0,1-3.578,5.789H6.472A4,4,0,0,1,2.894,103.2Z" stroke="none"/>
        <path d="M 54.49371719360352 6.944259643554688 C 53.71973419189453 6.944259643554688 53.05099487304688 7.357551574707031 52.70487213134766 8.049850463867188 L 4.68328857421875 104.0930328369141 C 4.233192443847656 104.9932022094727 4.594581604003906 105.7537231445312 4.770843505859375 106.0389251708984 C 4.947105407714844 106.3241271972656 5.465713500976562 106.9874649047852 6.472129821777344 106.9874649047852 L 102.5153198242188 106.9874649047852 C 103.521728515625 106.9874649047852 104.0403594970703 106.3241119384766 104.2166213989258 106.0389099121094 C 104.3928833007812 105.7537231445312 104.7542572021484 104.9932022094727 104.3041610717773 104.0930328369141 L 56.2825927734375 8.049850463867188 C 55.93643951416016 7.357566833496094 55.2677001953125 6.944259643554688 54.49371719360352 6.944259643554688 M 54.49372482299805 4.944267272949219 C 55.91405487060547 4.944267272949219 57.33438491821289 5.681320190429688 58.07144165039062 7.155418395996094 L 106.0930252075195 103.198600769043 C 107.4228363037109 105.8582000732422 105.4888381958008 108.9874649047852 102.5153198242188 108.9874649047852 L 6.472129821777344 108.9874649047852 C 3.498611450195312 108.9874649047852 1.564620971679688 105.8582000732422 2.894424438476562 103.198600769043 L 50.91600799560547 7.155418395996094 C 51.6530647277832 5.681320190429688 53.07339477539062 4.944267272949219 54.49372482299805 4.944267272949219 Z" stroke="none" fill="#ebedf5"/>
      </g>
      <circle id="Ellipse_779" data-name="Ellipse 779" cx="7" cy="7" r="7" transform="translate(147.844 918.434)" fill="#fff"/>
      <circle id="Ellipse_780" data-name="Ellipse 780" cx="7" cy="7" r="7" transform="translate(145.228 813.168)" fill="#fff"/>
      <circle id="Ellipse_781" data-name="Ellipse 781" cx="7" cy="7" r="7" transform="translate(253.416 854.043)" fill="#fff"/>
    </g>
    <g id="Connection-2" data-name="Connection" transform="matrix(0.866, -0.5, 0.5, 0.866, 469.741, -57.978)" opacity="0.65">
      <g id="Polygon_68" data-name="Polygon 68" transform="translate(253.578 817.557) rotate(94)" fill="none">
        <path d="M50.8,7.155a4,4,0,0,1,7.155,0l47.909,95.818a4,4,0,0,1-3.578,5.789H6.472a4,4,0,0,1-3.578-5.789Z" stroke="none"/>
        <path d="M 54.3810920715332 6.94427490234375 C 53.60710906982422 6.94427490234375 52.93836975097656 7.357566833496094 52.59224700927734 8.049842834472656 L 4.683273315429688 103.8677673339844 C 4.233200073242188 104.767936706543 4.594566345214844 105.5284729003906 4.770843505859375 105.8136749267578 C 4.947105407714844 106.0988693237305 5.465721130371094 106.76220703125 6.472137451171875 106.76220703125 L 102.2900619506836 106.76220703125 C 103.2964935302734 106.76220703125 103.8151092529297 106.0988693237305 103.9913711547852 105.8136749267578 C 104.1676330566406 105.5284729003906 104.5289993286133 104.767951965332 104.0789108276367 103.8677825927734 L 56.16996765136719 8.049858093261719 C 55.82381439208984 7.357582092285156 55.15507507324219 6.94427490234375 54.3810920715332 6.94427490234375 M 54.38109970092773 4.94427490234375 C 55.80142974853516 4.94427490234375 57.22175979614258 5.681320190429688 57.95881652832031 7.155410766601562 L 105.8677673339844 102.9733505249023 C 107.1975860595703 105.6329498291016 105.2636032104492 108.76220703125 102.2900619506836 108.76220703125 L 6.472137451171875 108.76220703125 C 3.498611450195312 108.76220703125 1.564628601074219 105.6329498291016 2.894416809082031 102.9733505249023 L 50.80338287353516 7.155410766601562 C 51.54043960571289 5.681320190429688 52.96076965332031 4.94427490234375 54.38109970092773 4.94427490234375 Z" stroke="none" fill="#ebedf5"/>
      </g>
      <path id="Path_982" data-name="Path 982" d="M7,0A7,7,0,1,1,0,7,7,7,0,0,1,7,0Z" transform="translate(150.442 900.641)" fill="none"/>
      <circle id="Ellipse_781-2" data-name="Ellipse 781" cx="7" cy="7" r="7" transform="translate(240.913 862.699)" fill="#fff"/>
      <circle id="Ellipse_784" data-name="Ellipse 784" cx="7" cy="7" r="7" transform="translate(130.816 911.393)" fill="#fff"/>
    </g>
    <g id="Connection-3" data-name="Connection" transform="matrix(0.866, -0.5, 0.5, 0.866, 412.972, 51.492)" opacity="0.65">
      <g id="Polygon_68-2" data-name="Polygon 68" transform="matrix(0.07, 0.998, -0.998, 0.07, 244.471, 807.142)" fill="none">
        <path d="M43.2,7.155a4,4,0,0,1,7.155,0L90.668,87.773a4,4,0,0,1-3.578,5.789H6.472a4,4,0,0,1-3.578-5.789Z" stroke="none"/>
        <path d="M 46.78098297119141 6.944267272949219 C 46.00699615478516 6.944267272949219 45.33826446533203 7.357566833496094 44.99213027954102 8.049842834472656 L 4.683273315429688 88.66752624511719 C 4.233200073242188 89.56769561767578 4.594566345214844 90.32821655273438 4.770835876464844 90.61341857910156 C 4.947090148925781 90.89862060546875 5.465713500976562 91.56195068359375 6.472129821777344 91.56195068359375 L 87.08982086181641 91.56195068359375 C 88.09623718261719 91.56195068359375 88.61486053466797 90.89862060546875 88.79111480712891 90.61341857910156 C 88.96738433837891 90.32821655273438 89.32875823974609 89.56769561767578 88.87867736816406 88.66752624511719 L 48.5698356628418 8.049842834472656 C 48.22370147705078 7.357566833496094 47.55496978759766 6.944267272949219 46.78098297119141 6.944267272949219 M 46.78098297119141 4.944267272949219 C 48.20131301879883 4.944267272949219 49.62164306640625 5.681320190429688 50.35868835449219 7.155418395996094 L 90.66752624511719 87.77309417724609 C 91.99732971191406 90.43270874023438 90.06333923339844 93.56195068359375 87.08982086181641 93.56195068359375 L 6.472129821777344 93.56195068359375 C 3.498611450195312 93.56195068359375 1.564620971679688 90.43270874023438 2.894424438476562 87.77309417724609 L 43.20327758789062 7.155418395996094 C 43.94032287597656 5.681320190429688 45.36065292358398 4.944267272949219 46.78098297119141 4.944267272949219 Z" stroke="none" fill="#ebedf5"/>
      </g>
      <path id="Path_982-2" data-name="Path 982" d="M7,0A7,7,0,1,1,0,7,7,7,0,0,1,7,0Z" transform="translate(150.442 900.641)" fill="none"/>
      <circle id="Ellipse_780-2" data-name="Ellipse 780" cx="7" cy="7" r="7" transform="translate(142.094 809.111)" fill="#fff"/>
      <circle id="Ellipse_781-3" data-name="Ellipse 781" cx="7" cy="7" r="7" transform="translate(234.507 845.253)" fill="#fff"/>
      <circle id="Ellipse_788" data-name="Ellipse 788" cx="7" cy="7" r="7" transform="translate(151.174 895.497)" fill="#fff"/>
    </g>
    <g id="Connection-4" data-name="Connection" transform="matrix(0.839, -0.545, 0.545, 0.839, 321.514, -8.431)" opacity="0.65">
      <g id="Polygon_68-3" data-name="Polygon 68" transform="matrix(0.07, 0.998, -0.998, 0.07, 254.389, 801.218)" fill="none">
        <path d="M54.416,7.155a4,4,0,0,1,7.155,0L113.093,110.2a4,4,0,0,1-3.578,5.789H6.472A4,4,0,0,1,2.894,110.2Z" stroke="none"/>
        <path d="M 57.99371719360352 6.94427490234375 C 57.21973419189453 6.94427490234375 56.55099868774414 7.357574462890625 56.20486450195312 8.049842834472656 L 4.683280944824219 111.0930252075195 C 4.233200073242188 111.9931945800781 4.594581604003906 112.7537231445312 4.770835876464844 113.0389251708984 C 4.947097778320312 113.3241271972656 5.465713500976562 113.9874572753906 6.472129821777344 113.9874572753906 L 109.5153198242188 113.9874572753906 C 110.521728515625 113.9874572753906 111.0403671264648 113.3241119384766 111.2166290283203 113.0389251708984 C 111.3928833007812 112.7537231445312 111.754264831543 111.9932098388672 111.3041839599609 111.0930404663086 L 59.7825813293457 8.049842834472656 C 59.43645095825195 7.357574462890625 58.76771545410156 6.94427490234375 57.99371719360352 6.94427490234375 M 57.99372482299805 4.94427490234375 C 59.41405487060547 4.94427490234375 60.83438110351562 5.681320190429688 61.57143402099609 7.155410766601562 L 113.0930328369141 110.1986083984375 C 114.4228363037109 112.8582077026367 112.4888458251953 115.9874572753906 109.5153198242188 115.9874572753906 L 6.472129821777344 115.9874572753906 C 3.498619079589844 115.9874572753906 1.56463623046875 112.8582077026367 2.894416809082031 110.1986083984375 L 54.416015625 7.155410766601562 C 55.1530647277832 5.681320190429688 56.57339477539062 4.94427490234375 57.99372482299805 4.94427490234375 Z" stroke="none" fill="#ebedf5"/>
      </g>
      <circle id="Ellipse_779-2" data-name="Ellipse 779" cx="7" cy="7" r="7" transform="translate(143.514 915.435)" fill="#fff"/>
      <circle id="Ellipse_780-3" data-name="Ellipse 780" cx="7" cy="7" r="7" transform="translate(134.325 806.088)" fill="#fff"/>
      <circle id="Ellipse_781-4" data-name="Ellipse 781" cx="7" cy="7" r="7" transform="translate(249.952 852.043)" fill="#fff"/>
    </g>
    <g id="Connection-5" data-name="Connection" transform="matrix(0.719, 0.695, -0.695, 0.719, 1321.083, -15.307)" opacity="0.65">
      <g id="Path_983-2" data-name="Path 983" transform="matrix(0.07, 0.998, -0.998, 0.07, 242.756, 812.744)" fill="none">
        <path d="M43.6,1.99a3.6,3.6,0,0,1,6.439,0l13.1,26.2L93.245,88.412a3.6,3.6,0,0,1-3.219,5.209H3.6A3.6,3.6,0,0,1,.385,88.412Z" stroke="none"/>
        <path d="M 46.81492233276367 2 C 46.51773834228516 2 45.7834358215332 2.086143493652344 45.38447952270508 2.884071350097656 L 2.173477172851562 89.30605316162109 C 1.813568115234375 90.02587127685547 2.102554321289062 90.63402557373047 2.243492126464844 90.86208343505859 C 2.384437561035156 91.09014129638672 2.799148559570312 91.62058258056641 3.603935241699219 91.62058258056641 L 90.02593994140625 91.62058258056641 C 90.83072662353516 91.62058258056641 91.24543762207031 91.09014129638672 91.38638305664062 90.86208343505859 C 91.52732086181641 90.63402557373047 91.81629180908203 90.02588653564453 91.45638275146484 89.30605316162109 L 48.24538040161133 2.884071350097656 C 47.8464241027832 2.086143493652344 47.11211013793945 2 46.81492233276367 2 M 46.8149299621582 0 C 48.09297561645508 0 49.37102508544922 0.6632156372070312 50.03423690795898 1.989639282226562 L 93.2452392578125 88.41162872314453 C 94.44184112548828 90.8048095703125 92.70158386230469 93.62058258056641 90.02593994140625 93.62058258056641 L 3.603935241699219 93.62058258056641 C 0.9282913208007812 93.62058258056641 -0.8119659423828125 90.8048095703125 0.3846206665039062 88.41162872314453 L 43.59562301635742 1.989639282226562 C 44.25883865356445 0.6632156372070312 45.53688430786133 0 46.8149299621582 0 Z" stroke="none" fill="#ebedf5"/>
      </g>
      <circle id="Ellipse_779-3" data-name="Ellipse 779" cx="7" cy="7" r="7" transform="translate(146.868 917.825)" fill="#fff"/>
      <circle id="Ellipse_780-4" data-name="Ellipse 780" cx="7" cy="7" r="7" transform="translate(145.228 813.168)" fill="#fff"/>
      <circle id="Ellipse_781-5" data-name="Ellipse 781" cx="7" cy="7" r="7" transform="translate(239.488 852.58)" fill="#fff"/>
    </g>
    <g id="Connection-6" data-name="Connection" transform="matrix(0.719, 0.695, -0.695, 0.719, 1202.083, -38.801)" opacity="0.65">
      <g id="Polygon_68-4" data-name="Polygon 68" transform="matrix(0.07, 0.998, -0.998, 0.07, 257.913, 809.938)" fill="none">
        <path d="M50.916,7.155a4,4,0,0,1,7.155,0L106.093,103.2a4,4,0,0,1-3.578,5.789H6.472A4,4,0,0,1,2.894,103.2Z" stroke="none"/>
        <path d="M 54.49373245239258 6.944259643554688 C 53.71974945068359 6.944259643554688 53.05101013183594 7.357551574707031 52.70488739013672 8.049850463867188 L 4.68328857421875 104.0930328369141 C 4.233192443847656 104.9932022094727 4.594581604003906 105.7537231445312 4.770843505859375 106.0389251708984 C 4.947105407714844 106.3241271972656 5.465713500976562 106.9874649047852 6.472129821777344 106.9874649047852 L 102.5153198242188 106.9874649047852 C 103.521728515625 106.9874649047852 104.0403594970703 106.3241119384766 104.2166213989258 106.0389099121094 C 104.3928833007812 105.7537231445312 104.7542572021484 104.9932022094727 104.3041610717773 104.0930328369141 L 56.2825927734375 8.049850463867188 C 55.93643951416016 7.357566833496094 55.26771545410156 6.944259643554688 54.49373245239258 6.944259643554688 M 54.49372482299805 4.944267272949219 C 55.91405487060547 4.944267272949219 57.33438491821289 5.681320190429688 58.07144165039062 7.155418395996094 L 106.0930252075195 103.198600769043 C 107.4228363037109 105.8582000732422 105.4888381958008 108.9874649047852 102.5153198242188 108.9874649047852 L 6.472129821777344 108.9874649047852 C 3.498611450195312 108.9874649047852 1.564620971679688 105.8582000732422 2.894424438476562 103.198600769043 L 50.91602325439453 7.155418395996094 C 51.65307235717773 5.681320190429688 53.07339859008789 4.944267272949219 54.49372482299805 4.944267272949219 Z" stroke="none" fill="#ebedf5"/>
      </g>
      <circle id="Ellipse_779-4" data-name="Ellipse 779" cx="7" cy="7" r="7" transform="translate(151.236 914.997)" fill="#fff"/>
      <circle id="Ellipse_780-5" data-name="Ellipse 780" cx="7" cy="7" r="7" transform="translate(145.228 813.168)" fill="#fff"/>
      <circle id="Ellipse_781-6" data-name="Ellipse 781" cx="7" cy="7" r="7" transform="translate(248.964 852.312)" fill="#fff"/>
    </g>
    <g id="Connection-7" data-name="Connection" transform="matrix(0.719, 0.695, -0.695, 0.719, 1248.276, 69.588)" opacity="0.65">
      <g id="Polygon_68-5" data-name="Polygon 68" transform="translate(252.917 823.839) rotate(94)" fill="none">
        <path d="M48,7.155a4,4,0,0,1,7.155,0l45.1,90.206a4,4,0,0,1-3.578,5.789H6.472a4,4,0,0,1-3.578-5.789Z" stroke="none"/>
        <path d="M 51.57524871826172 6.944259643554688 C 50.80126571655273 6.944259643554688 50.13254928588867 7.357559204101562 49.78640747070312 8.049842834472656 L 4.683280944824219 98.25608825683594 C 4.233192443847656 99.15625762939453 4.594566345214844 99.91678619384766 4.770835876464844 100.2019882202148 C 4.947090148925781 100.487190246582 5.465721130371094 101.150520324707 6.472137451171875 101.150520324707 L 96.67839050292969 101.150520324707 C 97.68464660644531 101.150520324707 98.20329284667969 100.4871215820312 98.37956237792969 100.201904296875 C 98.55583190917969 99.91668701171875 98.91725158691406 99.1561279296875 98.46723937988281 98.25608825683594 L 53.36410522460938 8.049842834472656 C 53.01796340942383 7.357559204101562 52.34923553466797 6.944259643554688 51.57524871826172 6.944259643554688 M 51.57525634765625 4.944267272949219 C 52.99558639526367 4.944267272949219 54.41591262817383 5.681320190429688 55.1529655456543 7.155418395996094 L 100.2560958862305 97.36166381835938 C 101.585807800293 100.021110534668 99.65163421630859 103.150520324707 96.67839813232422 103.150520324707 C 96.67821502685547 103.150520324707 96.67855834960938 103.150520324707 96.67837524414062 103.150520324707 L 6.472137451171875 103.150520324707 C 3.498603820800781 103.1505355834961 1.564620971679688 100.0212783813477 2.894424438476562 97.36166381835938 L 47.99755096435547 7.155418395996094 C 48.73460006713867 5.681320190429688 50.15493011474609 4.944267272949219 51.57525634765625 4.944267272949219 Z" stroke="none" fill="#ebedf5"/>
      </g>
      <path id="Path_982-3" data-name="Path 982" d="M7,0A7,7,0,1,1,0,7,7,7,0,0,1,7,0Z" transform="translate(150.442 900.641)" fill="none"/>
      <circle id="Ellipse_780-6" data-name="Ellipse 780" cx="7" cy="7" r="7" transform="translate(139.695 806)" fill="#fff"/>
      <circle id="Ellipse_781-7" data-name="Ellipse 781" cx="7" cy="7" r="7" transform="translate(238.772 866.512)" fill="#fff"/>
      <circle id="Ellipse_786" data-name="Ellipse 786" cx="7" cy="7" r="7" transform="translate(136.174 909.983)" fill="#fff"/>
    </g>
    <g id="Connection-8" data-name="Connection" transform="matrix(0.719, 0.695, -0.695, 0.719, 1127.399, 45.192)" opacity="0.65">
      <g id="Polygon_68-6" data-name="Polygon 68" transform="matrix(0.017, 1, -1, 0.017, 249.222, 803.409)" fill="none">
        <path d="M46.2,7.155a4,4,0,0,1,7.155,0L96.668,93.773a4,4,0,0,1-3.578,5.789H6.472a4,4,0,0,1-3.578-5.789Z" stroke="none"/>
        <path d="M 49.78096771240234 6.944267272949219 C 49.00698471069336 6.944267272949219 48.3382682800293 7.357566833496094 47.99212646484375 8.049850463867188 L 4.683280944824219 94.66753387451172 C 4.233200073242188 95.56771087646484 4.594566345214844 96.32822418212891 4.770843505859375 96.61341857910156 C 4.947097778320312 96.89862060546875 5.465728759765625 97.56196594238281 6.472137451171875 97.56196594238281 L 93.08982849121094 97.56196594238281 C 94.09623718261719 97.56196594238281 94.6148681640625 96.89862060546875 94.79112243652344 96.61341857910156 C 94.96738433837891 96.32822418212891 95.32875061035156 95.56771087646484 94.87866973876953 94.66753387451172 L 51.56982421875 8.049850463867188 C 51.22368240356445 7.357566833496094 50.55495452880859 6.944267272949219 49.78096771240234 6.944267272949219 M 49.78097534179688 4.94427490234375 C 51.2013053894043 4.94427490234375 52.62163162231445 5.681320190429688 53.35868453979492 7.155426025390625 L 96.66752624511719 93.77310943603516 C 97.99733734130859 96.43270874023438 96.06333923339844 99.56196594238281 93.08982849121094 99.56196594238281 L 6.472137451171875 99.56196594238281 C 3.498611450195312 99.56196594238281 1.564628601074219 96.43270874023438 2.894424438476562 93.77310943603516 L 46.20326995849609 7.155426025390625 C 46.9403190612793 5.681320190429688 48.36064910888672 4.94427490234375 49.78097534179688 4.94427490234375 Z" stroke="none" fill="#ebedf5"/>
      </g>
      <path id="Path_982-4" data-name="Path 982" d="M7,0A7,7,0,1,1,0,7,7,7,0,0,1,7,0Z" transform="translate(150.442 900.641)" fill="none"/>
      <circle id="Ellipse_780-7" data-name="Ellipse 780" cx="7" cy="7" r="7" transform="translate(146.12 802.576)" fill="#fff"/>
      <circle id="Ellipse_787" data-name="Ellipse 787" cx="7" cy="7" r="7" transform="translate(146.59 896.653)" fill="#fff"/>
      <circle id="Ellipse_781-8" data-name="Ellipse 781" cx="7" cy="7" r="7" transform="translate(239.886 843.193)" fill="#fff"/>
    </g>
    <g id="Polygon_103" data-name="Polygon 103" transform="translate(479.139 570.791) rotate(45)" fill="#ebb22d">
      <path d="M 46.39657592773438 51.5 L 16.60342407226562 51.5 L 1.74493408203125 26.5 L 16.60342407226562 1.5 L 46.39657592773438 1.5 L 61.25506591796875 26.5 L 46.39657592773438 51.5 Z" stroke="none"/>
      <path d="M 17.45685195922852 3 L 3.489871978759766 26.5 L 17.45685195922852 50 L 45.54314804077148 50 L 59.51012802124023 26.5 L 45.54314804077148 3 L 17.45685195922852 3 M 15.75 0 L 47.25 0 L 63 26.5 L 47.25 53 L 15.75 53 L 0 26.5 L 15.75 0 Z" stroke="none" fill="#ebb22d"/>
    </g>
    <g id="Connection-9" data-name="Connection" transform="translate(1432.653 456.568) rotate(84)" opacity="0.65">
      <circle id="Ellipse_780-8" data-name="Ellipse 780" cx="7" cy="7" r="7" transform="translate(142.402 815.29)" fill="#fff"/>
      <circle id="Ellipse_781-9" data-name="Ellipse 781" cx="7" cy="7" r="7" transform="translate(251.11 846.726)" fill="#fff"/>
      <g id="Polygon_68-7" data-name="Polygon 68" transform="translate(253.885 803.815) rotate(82)" fill="none">
        <path d="M49.988,7.155a4,4,0,0,1,7.155,0l47.094,94.187a4,4,0,0,1-3.578,5.789H6.472a4,4,0,0,1-3.578-5.789Z" stroke="none"/>
        <path d="M 53.56576156616211 6.944259643554688 C 52.79177856445312 6.944259643554688 52.12303924560547 7.357551574707031 51.77691650390625 8.049842834472656 L 4.683280944824219 102.2370910644531 C 4.233192443847656 103.1372451782227 4.594573974609375 103.8977661132812 4.770835876464844 104.1829681396484 C 4.947097778320312 104.4681701660156 5.465713500976562 105.1315078735352 6.472129821777344 105.1315078735352 L 100.6593780517578 105.1315078735352 C 101.6658096313477 105.1315078735352 102.1844253540039 104.4681701660156 102.3606872558594 104.1829681396484 C 102.5369491577148 103.8977661132812 102.8983154296875 103.1372451782227 102.4482269287109 102.2370910644531 L 55.35462188720703 8.049842834472656 C 55.00846862792969 7.357566833496094 54.33974456787109 6.944259643554688 53.56576156616211 6.944259643554688 M 53.56575393676758 4.944267272949219 C 54.986083984375 4.944267272949219 56.40641403198242 5.681312561035156 57.14347076416016 7.155418395996094 L 104.2370834350586 101.342658996582 C 105.5669021606445 104.0022583007812 103.6328964233398 107.1315078735352 100.6593780517578 107.1315078735352 L 6.472129821777344 107.1315078735352 C 3.498611450195312 107.1315078735352 1.564620971679688 104.0022583007812 2.894424438476562 101.342658996582 L 49.98805236816406 7.155418395996094 C 50.72510147094727 5.681312561035156 52.14542770385742 4.944267272949219 53.56575393676758 4.944267272949219 Z" stroke="none" fill="#ebedf5"/>
      </g>
      <path id="Path_988" data-name="Path 988" d="M55.823,905.892l104.462,15.667" transform="matrix(0.883, -0.469, 0.469, 0.883, -417.522, 185.697)" fill="none" stroke="#f4f5f9" stroke-width="2"/>
      <circle id="Ellipse_779-5" data-name="Ellipse 779" cx="7" cy="7" r="7" transform="translate(155.008 914.529)" fill="#fff"/>
    </g>
    <circle id="Ellipse_783" data-name="Ellipse 783" cx="7" cy="7" r="7" transform="matrix(0.978, 0.208, -0.208, 0.978, 478.541, 605.234)" fill="#fff"/>
    <g id="Group_286" data-name="Group 286" transform="translate(1180.208 -674.117) rotate(58)" opacity="0.5">
      <g id="Circles" transform="translate(108.114 762.018)">
        <g id="Polygon_32" data-name="Polygon 32" transform="translate(15.584 132.235)" fill="#df1d5a">
          <path d="M 46.96551895141602 52.5 L 16.03448104858398 52.5 L 0.5816500186920166 26.5 L 16.03448104858398 0.5 L 46.96551895141602 0.5 L 62.41835021972656 26.5 L 46.96551895141602 52.5 Z" stroke="none"/>
          <path d="M 16.31894302368164 1 L 1.163284301757812 26.5 L 16.31894302368164 52 L 46.68105316162109 52 L 61.83671569824219 26.5 L 46.68105316162109 1 L 16.31894302368164 1 M 15.75 0 L 47.25 0 L 63 26.5 L 47.25 53 L 15.75 53 L 0 26.5 L 15.75 0 Z" stroke="none" fill="#df1d5a"/>
        </g>
        <g id="Polygon_105" data-name="Polygon 105" transform="translate(6.861 37.62)" fill="#2db67e">
          <path d="M 46.96551895141602 52.5 L 16.03448104858398 52.5 L 0.5816500186920166 26.5 L 16.03448104858398 0.5 L 46.96551895141602 0.5 L 62.41835021972656 26.5 L 46.96551895141602 52.5 Z" stroke="none"/>
          <path d="M 16.31894302368164 1 L 1.163284301757812 26.5 L 16.31894302368164 52 L 46.68105316162109 52 L 61.83671569824219 26.5 L 46.68105316162109 1 L 16.31894302368164 1 M 15.75 0 L 47.25 0 L 63 26.5 L 47.25 53 L 15.75 53 L 0 26.5 L 15.75 0 Z" stroke="none" fill="#2db67e"/>
        </g>
        <g id="Polygon_67" data-name="Polygon 67" transform="translate(101.659 78.853)" fill="#ebb22d">
          <path d="M 46.96551895141602 52.5 L 16.03448104858398 52.5 L 0.5816500186920166 26.5 L 16.03448104858398 0.5 L 46.96551895141602 0.5 L 62.41835021972656 26.5 L 46.96551895141602 52.5 Z" stroke="none"/>
          <path d="M 16.31894302368164 1 L 1.163284301757812 26.5 L 16.31894302368164 52 L 46.68105316162109 52 L 61.83671569824219 26.5 L 46.68105316162109 1 L 16.31894302368164 1 M 15.75 0 L 47.25 0 L 63 26.5 L 47.25 53 L 15.75 53 L 0 26.5 L 15.75 0 Z" stroke="none" fill="#ebb22d"/>
        </g>
      </g>
      <g id="Connection-10" data-name="Connection" transform="translate(142.396 806.992)" opacity="0.65">
        <g id="Polygon_68-8" data-name="Polygon 68" transform="matrix(0.07, 0.998, -0.998, 0.07, 102.935, 10.661)" fill="none">
          <path d="M47.488,7.155a4,4,0,0,1,7.155,0L99.237,96.343a4,4,0,0,1-3.578,5.789H6.472a4,4,0,0,1-3.578-5.789Z" stroke="none"/>
          <path d="M 51.06582641601562 6.944259643554688 C 50.29184341430664 6.944259643554688 49.62312698364258 7.357566833496094 49.27698516845703 8.049850463867188 L 4.683280944824219 97.23725128173828 C 4.233200073242188 98.13742065429688 4.594573974609375 98.89793395996094 4.770843505859375 99.18313598632812 C 4.947097778320312 99.46833801269531 5.465728759765625 100.1316757202148 6.472145080566406 100.1316757202148 L 95.65953826904297 100.1316757202148 C 96.66595458984375 100.1316757202148 97.18458557128906 99.46833801269531 97.36083984375 99.18313598632812 C 97.53710174560547 98.89793395996094 97.89846801757812 98.13742065429688 97.44838714599609 97.23725128173828 L 52.85468292236328 8.049850463867188 C 52.50854110717773 7.357566833496094 51.83981323242188 6.944259643554688 51.06582641601562 6.944259643554688 M 51.06583404541016 4.944267272949219 C 52.48616409301758 4.944267272949219 53.90649032592773 5.681320190429688 54.6435432434082 7.155418395996094 L 99.23724365234375 96.34281921386719 C 100.5670547485352 99.00241851806641 98.633056640625 102.1316757202148 95.65953826904297 102.1316757202148 L 6.472145080566406 102.1316757202148 C 3.498611450195312 102.1316757202148 1.564628601074219 99.00241851806641 2.894424438476562 96.34281921386719 L 47.48812866210938 7.155418395996094 C 48.22517776489258 5.681320190429688 49.6455078125 4.944267272949219 51.06583404541016 4.944267272949219 Z" stroke="none" fill="#ebedf5"/>
        </g>
        <circle id="Ellipse_779-6" data-name="Ellipse 779" cx="7" cy="7" r="7" transform="translate(5.116 108.635)" fill="#fff"/>
        <circle id="Ellipse_780-9" data-name="Ellipse 780" cx="7" cy="7" r="7" transform="translate(-4.561 12.253)" fill="#fff"/>
        <circle id="Ellipse_781-10" data-name="Ellipse 781" cx="7" cy="7" r="7" transform="translate(92.099 54.102)" fill="#fff"/>
      </g>
    </g>
  </g>
</svg>
