<svg xmlns="http://www.w3.org/2000/svg" width="82.75" height="85.456" viewBox="0 0 82.75 85.456">
  <g id="Value" transform="translate(-175.027 -3705)">
    <path id="Path_22" data-name="Path 22" d="M4093.065,2445.818l37.1,20.71V2508.1l-37.1,21.1h0l-37.312-21.1v-41.572Z" transform="translate(-3874.118 1260.682)" fill="none" stroke="#ebb22d" stroke-width="1"/>
    <circle id="Ellipse_29" data-name="Ellipse 29" cx="2" cy="2" r="2" transform="translate(253.777 3766)" fill="#2db67e"/>
    <circle id="Ellipse_31" data-name="Ellipse 31" cx="2" cy="2" r="2" transform="translate(253.777 3725)" fill="#2db67e"/>
    <circle id="Ellipse_30" data-name="Ellipse 30" cx="2" cy="2" r="2" transform="translate(216.944 3705)" fill="#2db67e"/>
    <path id="Path_23" data-name="Path 23" d="M4062.379,2445.818l6.589,3.661v7.348l-6.589,3.729h0l-6.626-3.729v-7.348Z" transform="translate(-3880.726 1295.004)" fill="#2db67e"/>
    <path id="Icon_awesome-hands-helping" data-name="Icon awesome-hands-helping" d="M45.9,18.059H31.6v5.267a6.772,6.772,0,0,1-13.545,0V11.889l-6.1,3.668A6.007,6.007,0,0,0,9.03,20.711V25.16L1.505,29.506a3,3,0,0,0-1.1,4.11L7.93,46.653a3.011,3.011,0,0,0,4.11,1.1l9.726-5.615H34.615a6.025,6.025,0,0,0,6.02-6.02h1.5a3.007,3.007,0,0,0,3.01-3.01v-6.02H45.9a2.252,2.252,0,0,0,2.257-2.257V20.316A2.252,2.252,0,0,0,45.9,18.059Zm13.893-3.518L52.27,1.5A3.011,3.011,0,0,0,48.159.4L38.433,6.019H28.82a6.065,6.065,0,0,0-3.189.912L22.481,8.9a2.99,2.99,0,0,0-1.411,2.549v11.88a3.762,3.762,0,1,0,7.525,0V15.049H45.9a5.271,5.271,0,0,1,5.267,5.267V23l7.525-4.346a3.013,3.013,0,0,0,1.1-4.11Z" transform="translate(188.564 3724.999)" fill="#df1d5a"/>
  </g>
</svg>
