<svg xmlns="http://www.w3.org/2000/svg" width="163.716" height="86.121" viewBox="0 0 163.716 86.121">
  <path id="Tech_PHP_Web" d="M47.819,39.358h-6.44L37.866,57.422h5.716q5.689,0,8.472-2.142t3.752-7.156q.941-4.809-.846-6.787c-1.194-1.317-3.568-1.978-7.142-1.978ZM81.858,8.532C36.652,8.532,0,27.81,0,51.589S36.652,94.653,81.858,94.653s81.858-19.284,81.858-43.064S127.064,8.532,81.858,8.532ZM59.62,59.359a16.555,16.555,0,0,1-6.255,3.759A29.146,29.146,0,0,1,44.6,64.236H36.543L34.312,75.7h-9.4L33.3,32.551H51.38q8.155,0,11.9,4.284t2.251,11.951A18.8,18.8,0,0,1,59.62,59.359Zm27.45,4.877,3.7-19.093c.43-2.169.266-3.656-.464-4.441s-2.292-1.187-4.686-1.187H78.174l-4.8,24.728H64.04l8.39-43.16h9.325L79.525,32.557h8.309q7.848,0,10.819,2.735t1.794,8.861l-3.9,20.082H87.07Zm51.823-15.451a18.977,18.977,0,0,1-2.081,5.778,19.481,19.481,0,0,1-3.827,4.8,16.645,16.645,0,0,1-6.255,3.759,29.163,29.163,0,0,1-8.772,1.119h-8.049L107.677,75.71h-9.4l8.39-43.153h18.07q8.155,0,11.9,4.284,3.745,4.267,2.258,11.944Zm-17.7-9.427h-6.433l-3.52,18.063h5.716q5.7,0,8.472-2.142t3.759-7.156c.628-3.206.334-5.471-.853-6.787s-3.574-1.978-7.142-1.978Z" transform="translate(0 -8.532)" fill="#cccfdb"/>
</svg>
