<svg xmlns="http://www.w3.org/2000/svg" width="109.094" height="109.094" viewBox="0 0 109.094 109.094">
  <path id="Tech_JavaScript_Web" d="M0,0H109.094V109.094H0ZM100.157,83.075c-.8-4.977-4.036-9.159-13.65-13.059-3.346-1.568-7.064-2.659-8.168-5.182a5.367,5.367,0,0,1-.209-3.2c.682-2.936,4.159-3.818,6.887-3a7.4,7.4,0,0,1,4.437,4.091c4.7-3.073,4.7-3.073,7.978-5.114a18.761,18.761,0,0,0-2.664-3.546c-2.864-3.2-6.677-4.841-12.882-4.7l-3.2.4a14.653,14.653,0,0,0-7.773,4.568c-5.182,5.868-3.686,16.1,2.586,20.323,6.2,4.636,15.278,5.655,16.437,10.023C91.021,90,85.975,91.7,80.993,91.089c-3.686-.818-5.727-2.664-7.978-6.073L64.7,89.794c.955,2.182,2.046,3.132,3.682,5.041,7.909,7.982,27.683,7.573,31.233-4.564a15.385,15.385,0,0,0,.336-7.5l.209.3ZM59.324,50.142H49.106c0,8.809-.041,17.564-.041,26.387,0,5.6.286,10.741-.627,12.323-1.5,3.132-5.364,2.732-7.118,2.182a8.771,8.771,0,0,1-3.773-3.886,3.9,3.9,0,0,0-.577-.891l-8.3,5.114a16.078,16.078,0,0,0,6.018,6.9,20,20,0,0,0,14.578,1.841A12.768,12.768,0,0,0,57.5,93.694c2.318-4.227,1.827-9.409,1.8-15.21.055-9.337,0-18.678,0-28.087l.018-.255Z" fill="#cccfdb"/>
</svg>
