<svg xmlns="http://www.w3.org/2000/svg" width="164.457" height="111.673" viewBox="0 0 164.457 111.673">
  <path id="Tech_MySQL_Web" d="M112.413,17.345a7.561,7.561,0,0,0-1.878.226v.089h.1a15.459,15.459,0,0,0,1.466,1.871c.37.733.685,1.466,1.055,2.193l.1-.1a2.549,2.549,0,0,0,.959-2.282c-.274-.322-.315-.644-.548-.959-.274-.459-.863-.685-1.233-1.048Zm-72.875,90.41H33.186c-.206-10.7-.843-20.763-1.85-30.219h-.055l-9.662,30.219H16.788L7.195,77.536H7.126q-1.059,13.6-1.336,30.219H0Q.565,87.548,2.809,69.862h7.88L19.838,97.71h.055l9.23-27.848h7.5q2.487,20.711,2.933,37.894ZM67.064,79.8q-3.885,21.02-10.224,30.562-4.954,7.359-10.847,7.353a10.7,10.7,0,0,1-3.878-.946v-3.385a17.587,17.587,0,0,0,2.645.178,6.389,6.389,0,0,0,4.433-1.521,5.52,5.52,0,0,0,2.021-4.146,27.486,27.486,0,0,0-1.576-6.469L42.69,79.8h6.236l4.982,16.172q1.686,5.509,1.4,7.7A104.538,104.538,0,0,0,61.034,79.8h6.03Zm84.455,27.958H133.5V69.862h6.064V103.1H151.52Zm-22.75.925-6.962-3.426a14.717,14.717,0,0,0,1.747-1.713q4.451-5.2,4.44-15.438,0-18.81-14.767-18.817-7.236,0-11.306,4.776Q97.5,79.284,97.5,89.446q0,9.991,3.933,14.664,3.6,4.214,10.847,4.214a17.423,17.423,0,0,0,4.968-.672l9.079,5.29,2.467-4.262Zm-22.558-8.511c-1.542-2.467-2.309-6.441-2.309-11.9q0-14.318,8.7-14.321a7.321,7.321,0,0,1,6.695,3.426q2.3,3.721,2.3,11.807,0,14.431-8.7,14.445a7.325,7.325,0,0,1-6.7-3.426ZM94.85,97.257a10.039,10.039,0,0,1-3.536,7.921c-2.357,2.056-5.5,3.084-9.484,3.084a19.005,19.005,0,0,1-10.779-3.529l1.624-3.262a18.385,18.385,0,0,0,8.154,2.248,8.565,8.565,0,0,0,5.365-1.508A5.164,5.164,0,0,0,88.252,98c0-2.261-1.576-4.18-4.44-5.79-2.659-1.46-7.969-4.5-7.969-4.5-2.892-2.1-4.331-4.358-4.331-8.065a9.4,9.4,0,0,1,3.221-7.435,12.139,12.139,0,0,1,8.36-2.844,17.2,17.2,0,0,1,9.593,2.809l-1.46,3.262a18.68,18.68,0,0,0-7.291-1.576,6.452,6.452,0,0,0-4.481,1.412,4.692,4.692,0,0,0-1.7,3.591c0,2.248,1.6,4.18,4.564,5.825,2.693,1.473,8.134,4.591,8.134,4.591,2.967,2.09,4.44,4.317,4.44,8Zm64.289-40.1a21.009,21.009,0,0,0-8.888,1.288c-.685.274-1.782.274-1.878,1.144.377.363.432.959.754,1.466a10.513,10.513,0,0,0,2.371,2.789c.959.754,1.919,1.48,2.926,2.124,1.782,1.1,3.8,1.747,5.55,2.851.994.644,2.008,1.46,3.015,2.145.5.343.822.959,1.466,1.179v-.137c-.315-.411-.411-1.007-.719-1.466-.459-.459-.918-.87-1.37-1.323a22.087,22.087,0,0,0-4.762-4.625c-1.466-1-4.673-2.4-5.276-4.077l-.089-.1a18.439,18.439,0,0,0,3.152-.726c1.555-.411,2.981-.322,4.591-.726.726-.185,1.46-.411,2.193-.644v-.411c-.822-.822-1.439-1.939-2.289-2.707a60.761,60.761,0,0,0-7.565-5.639c-1.439-.918-3.262-1.508-4.776-2.289-.548-.274-1.466-.411-1.782-.87a17.667,17.667,0,0,1-1.884-3.522c-1.316-2.522-2.6-5.311-3.748-7.969a47.444,47.444,0,0,0-2.33-5.228c-4.728-7.791-9.847-12.512-17.72-17.131a22.315,22.315,0,0,0-5.866-1.878c-1.144-.055-2.289-.137-3.426-.185a16.624,16.624,0,0,1-2.124-1.61c-2.6-1.645-9.347-5.208-11.265-.493-1.233,2.974,1.83,5.907,2.892,7.414a21.124,21.124,0,0,1,2.33,3.426c.322.795.411,1.61.733,2.439a54.832,54.832,0,0,0,2.378,6.147,21.016,21.016,0,0,0,1.693,2.83c.37.5,1,.733,1.144,1.555-.644.932-.685,2.289-1.055,3.426-1.645,5.187-1,11.6,1.329,15.418.733,1.137,2.481,3.659,4.817,2.693,2.056-.822,1.6-3.426,2.193-5.722.137-.548.048-.911.329-1.281v.1c.644,1.288,1.288,2.515,1.878,3.8A25.783,25.783,0,0,0,124,56.774c1.1.822,1.967,2.248,3.337,2.755v-.137h-.1a6.116,6.116,0,0,0-1.055-.911,23.6,23.6,0,0,1-2.4-2.741,60.024,60.024,0,0,1-5.119-8.346c-.754-1.439-1.384-2.988-1.987-4.406-.274-.548-.274-1.37-.733-1.645a16.912,16.912,0,0,0-2.193,3.1c-.87,1.973-.959,4.4-1.288,6.921-.185.048-.1,0-.185.1-1.466-.356-1.967-1.878-2.515-3.152a19.889,19.889,0,0,1-.411-12.231c.322-.959,1.693-3.988,1.144-4.906-.288-.87-1.192-1.37-1.693-2.076a16.979,16.979,0,0,1-1.645-2.926c-1.1-2.563-1.645-5.4-2.837-7.962a23.733,23.733,0,0,0-2.289-3.515A23.058,23.058,0,0,1,99.51,11.13c-.226-.5-.548-1.329-.185-1.878a.78.78,0,0,1,.644-.617c.6-.493,2.3.151,2.892.425a23.434,23.434,0,0,1,4.536,2.289c.644.452,1.336,1.323,2.158,1.549h.959c1.466.322,3.118.1,4.488.5A29.32,29.32,0,0,1,121.6,16.55a40.793,40.793,0,0,1,14.287,15.665c.548,1.055.788,2.021,1.288,3.118.959,2.261,2.145,4.543,3.118,6.729a29.837,29.837,0,0,0,3.262,6.147c.685.959,3.44,1.46,4.673,1.96a33.294,33.294,0,0,1,3.152,1.288c1.576.959,3.111,2.056,4.591,3.111.754.521,3.036,1.665,3.173,2.59Z" transform="translate(0 -6.039)" fill="#cccfdb"/>
</svg>
