<svg xmlns="http://www.w3.org/2000/svg" width="93.544" height="109.094" viewBox="0 0 93.544 109.094">
  <path id="Tech_Android_Web" d="M16.282,44.284V72.493a6.675,6.675,0,0,1-6.7,6.748c-3.727,0-7.332-3.021-7.332-6.748V44.284c0-3.678,3.605-6.7,7.332-6.7A6.727,6.727,0,0,1,16.282,44.284ZM18.912,82.53a7.194,7.194,0,0,0,7.211,7.211h4.848l.073,14.884c0,8.989,13.447,8.916,13.447,0V89.74h9.062v14.884c0,8.94,13.52,8.965,13.52,0V89.74h4.921a7.184,7.184,0,0,0,7.162-7.211v-43.7H18.912ZM79.326,36.464H18.645c0-10.426,6.236-19.488,15.493-24.214l-4.653-8.6a.938.938,0,1,1,1.632-.926L35.843,11.4a32.912,32.912,0,0,1,26.382,0l4.7-8.648a.939.939,0,1,1,1.632.926L63.906,12.25c9.184,4.726,15.42,13.788,15.42,24.214ZM37.743,22.944a2.557,2.557,0,0,0-2.558-2.558,2.559,2.559,0,0,0,0,5.116A2.557,2.557,0,0,0,37.743,22.944Zm27.625,0A2.522,2.522,0,1,0,62.883,25.5,2.543,2.543,0,0,0,65.368,22.944ZM88.461,37.585a6.68,6.68,0,0,0-6.7,6.7V72.493a6.721,6.721,0,0,0,6.7,6.748c3.751,0,7.332-3.021,7.332-6.748V44.284C95.794,40.532,92.188,37.585,88.461,37.585Z" transform="translate(-2.25 -2.245)" fill="#cccfdb"/>
</svg>
