<svg xmlns="http://www.w3.org/2000/svg" width="100.724" height="100.747" viewBox="0 0 100.724 100.747">
  <path id="Tech_WPF_Web" d="M100.724,11.963V93.284A9.6,9.6,0,0,1,91.011,103H9.713A9.635,9.635,0,0,1,0,93.261v-81.3A9.6,9.6,0,0,1,9.713,2.25H91.034A9.6,9.6,0,0,1,100.724,11.963Zm-8.386,81.3v-81.3a1.335,1.335,0,0,0-1.3-1.3H88.943l-24.8,16.772L50.362,16.212,36.6,27.431,11.8,10.636H9.713a1.335,1.335,0,0,0-1.3,1.3V93.261a1.335,1.335,0,0,0,1.3,1.3H91.034a1.3,1.3,0,0,0,1.3-1.3ZM33.77,36.874v8.319H17.245V36.874Zm0,16.727v8.386H17.245V53.6Zm2.5-33.118,12.141-9.825H21.764ZM83.48,36.874v8.319H39.413V36.874Zm0,16.727v8.386H39.413V53.6ZM64.459,20.484l14.5-9.825H52.341l12.118,9.825ZM83.48,70.374V78.76H61.131V70.374H83.48Z" transform="translate(0 -2.25)" fill="#cccfdb"/>
</svg>
