<svg xmlns="http://www.w3.org/2000/svg" width="111.883" height="111.326" viewBox="0 0 111.883 111.326">
  <path id="Tech_Python_Web" d="M66.378.835l4.175.928,3.386,1.206L76.676,4.36l2.087,1.484,1.577,1.577L81.5,9l.742,1.531.464,1.392.186,1.206.093.928-.046.6v24.77l-.232,2.922L82.1,44.9l-.974,2.134L79.923,48.8l-1.392,1.438L77,51.4l-1.624.881-1.624.649-1.531.464-1.392.325-1.206.186-.974.093H40.959l-3.2.232-2.737.649L32.7,55.9l-1.9,1.252L29.27,58.632l-1.252,1.624-.928,1.67-.7,1.716-.464,1.624-.325,1.484L25.42,68l-.093.974V83.17H14.983l-.974-.139-1.3-.325-1.484-.557L9.6,81.315l-1.67-1.206-1.67-1.67L4.639,76.305,3.154,73.568l-1.3-3.386L.881,66.1.232,61.23,0,55.524l.278-5.659.742-4.824,1.113-4.036,1.484-3.293,1.67-2.644,1.855-2.041L9.092,31.5l1.948-1.113,1.855-.742,1.67-.464,1.484-.232,1.113-.046h.742l.278.046H56.034v-3.85H28.945L28.9,12.339l-.093-1.716.232-1.577.51-1.438.789-1.3L31.5,5.1l1.438-1.067L34.7,3.108l2.041-.835,2.366-.7,2.69-.557L44.763.557,48.056.278,51.628.093,55.524,0l5.891.232,4.963.6ZM37.155,10.019,36.088,11.55l-.371,1.9.371,1.9,1.067,1.577,1.531,1.02,1.9.417,1.9-.417,1.531-1.02,1.067-1.577.371-1.9-.371-1.9L44.02,10.019,42.49,9l-1.9-.417L38.686,9ZM97.875,28.342l1.3.278,1.484.557,1.624.835,1.67,1.252,1.67,1.624,1.624,2.18,1.484,2.737,1.3,3.386L111,45.273l.649,4.824.232,5.705-.278,5.705-.742,4.824-1.113,3.989-1.484,3.293-1.67,2.644-1.855,2.087-1.948,1.531-1.948,1.113-1.855.742-1.67.417-1.484.232-1.113.093-.742-.046H55.849v3.8H82.938l.046,12.8.093,1.67-.232,1.577-.51,1.438-.789,1.345-1.16,1.16-1.438,1.113-1.763.928-2.041.789-2.366.7-2.69.6-2.969.417-3.293.325-3.572.186-3.9.046-5.891-.186-4.963-.649-4.175-.928-3.386-1.16-2.737-1.392-2.087-1.531L31.542,103.9l-1.16-1.577-.742-1.531-.464-1.392-.186-1.16-.093-.928.046-.6V71.945l.232-2.969.6-2.5.974-2.134,1.206-1.763,1.392-1.484,1.531-1.113,1.624-.928,1.624-.649,1.531-.464,1.392-.278,1.206-.186.974-.093.6-.046H70.924l3.2-.232,2.737-.649,2.319-.974,1.9-1.3,1.531-1.484,1.252-1.624.928-1.67.7-1.67.464-1.624.325-1.484.186-1.3.093-.974V28.156h9.695l.649.046.974.139Zm-30.012,66.1L66.8,95.973l-.371,1.9.371,1.9,1.067,1.531,1.531,1.067,1.9.371,1.9-.371,1.531-1.067,1.067-1.531.371-1.9-.371-1.9-1.067-1.531L73.2,93.375,71.3,93l-1.9.371-1.531,1.067Z" transform="translate(0 0)" fill="#cccfdb"/>
</svg>
