<svg xmlns="http://www.w3.org/2000/svg" width="152.456" height="91.572" viewBox="0 0 152.456 91.572">
  <path id="Tech_AWS_Web" d="M42.976,37.65c-.172,5.4,2.525,7.785,2.592,9.3a1.945,1.945,0,0,1-.977,1.494L41.542,50.58a2.539,2.539,0,0,1-1.341.457c-.1,0-1.951.436-4.879-6.1a18.725,18.725,0,0,1-14.914,7.015c-3.878.212-14.388-2.2-13.847-13.39-.379-9.119,8.113-14.783,16.9-14.3A47.841,47.841,0,0,1,34.65,25.752V22.031c.641-6.3-3.5-11.193-10.674-10.46-.572,0-4.621-.119-10.919,2.408-1.753.805-1.977.672-2.561.672-1.765,0-1.039-5.117-.7-5.765C11.037,7.362,18.338,4.515,25.5,4.556A18.308,18.308,0,0,1,38.769,8.672a16.743,16.743,0,0,1,4.209,12.473l0,16.505ZM22.39,45.366c7.725-.112,11-4.757,11.741-7.258a23.86,23.86,0,0,0,.488-6.527,40.944,40.944,0,0,0-9.424-1.16c-3.609-.272-10.2,1.341-9.943,7.685A6.617,6.617,0,0,0,22.39,45.366ZM63.1,50.856a2.75,2.75,0,0,1-3.02-2.47L48.221,9.165a9.1,9.1,0,0,1-.457-2.044,1.1,1.1,0,0,1,.919-1.251c.057-.01-.507,0,5.3,0a2.706,2.706,0,0,1,2.99,2.47l8.509,33.547,7.9-33.547A2.7,2.7,0,0,1,76.43,5.9h4.088a2.636,2.636,0,0,1,3.02,2.47L91.5,42.348l8.783-33.976A2.787,2.787,0,0,1,103.3,5.9H108c.2-.031,1.465-.193,1.251,2.044-.1.441.812-2.539-12.566,40.472a2.749,2.749,0,0,1-3.02,2.47H89.212a2.749,2.749,0,0,1-3.021-2.561l-7.9-32.666L70.484,48.293a2.745,2.745,0,0,1-3.02,2.561H63.1ZM128.25,52.2c-1.4,0-8.08-.071-13.664-2.928a3.05,3.05,0,0,1-1.86-2.837V43.872c0-2.013,1.477-1.644,2.1-1.4a32.706,32.706,0,0,0,6.863,2.287c8.73,1.794,12.57-.548,13.511-1.067a5.477,5.477,0,0,0,1.251-8.325c-2.5-2.094-3.687-2.172-12.656-5-1.105-.307-10.41-3.242-10.431-12.473-.145-6.727,5.967-13.383,16.56-13.328,3.018,0,11.06.984,13.237,3.721a2.878,2.878,0,0,1,.457,1.677v2.408q0,1.586-1.16,1.586c-1.837-.2-5.1-2.661-11.71-2.561-1.641-.086-9.5.217-9.15,5.948-.1,4.516,6.339,6.21,7.075,6.405,8.685,2.613,11.589,3.047,15.036,7.046,4.083,5.3,1.882,11.505,1.036,13.206-4.545,8.93-16.3,8.2-16.5,8.2Zm9.576,24.979c-16.682,12.32-40.9,18.878-61.575,18.878A111.75,111.75,0,0,1,.674,67.3c-1.556-1.4-.183-3.325,1.708-2.256A151.827,151.827,0,0,0,77.866,85.078a150.125,150.125,0,0,0,57.549-11.8c2.806-1.191,5.186,1.858,2.411,3.9Zm6.953-7.93c-2.134-2.744-14.121-1.282-19.488-.641-1.617.183-1.891-1.22-.426-2.256,9.545-6.71,25.222-4.788,27.022-2.532s-.488,17.963-9.424,25.467c-1.372,1.16-2.685.548-2.075-.977,2.01-5.062,6.525-16.315,4.39-19.061Z" transform="translate(0 -4.485)" fill="#cccfdb"/>
</svg>
