<svg xmlns="http://www.w3.org/2000/svg" width="112.678" height="108.527" viewBox="0 0 112.678 108.527">
  <path id="Tech_JQuery_Web" d="M7.177,26.162C-2.8,40.5-1.567,59.147,6.063,74.373c.174.371.367.724.555,1.076a7.579,7.579,0,0,0,.362.7,3.967,3.967,0,0,0,.221.39c.122.244.254.479.381.715L8.319,78.5c.136.23.268.456.423.686.259.442.564.879.832,1.321.122.183.235.367.371.55q.684,1.074,1.457,2.087c.367.5.733.992,1.128,1.481.127.179.268.357.4.536l1.039,1.265c.127.146.254.315.39.465.461.555.95,1.1,1.438,1.641,0,.009.014.019.024.033a14.713,14.713,0,0,0,1.993,2.068c.376.385.752.771,1.152,1.147l.475.456c.522.489,1.044.978,1.594,1.448.009,0,.014.009.024.014l.268.235c.479.418.964.837,1.457,1.222l.588.494c.4.32.813.625,1.222.94l.639.489c.437.329.9.653,1.349.973.165.118.329.235.5.343l.136.108,1.321.87.564.376c.691.442,1.377.86,2.059,1.274.2.1.395.207.578.32.508.291,1.034.588,1.547.86.282.16.573.3.865.442.353.2.719.39,1.1.588a1.524,1.524,0,0,1,.263.108c.155.071.3.146.451.221.564.282,1.152.55,1.763.818a3.833,3.833,0,0,1,.357.16c.677.3,1.354.578,2.054.856.16.047.329.127.494.188.635.24,1.288.484,1.932.715l.235.085c.719.244,1.429.479,2.158.705.169.047.343.108.522.155a22.857,22.857,0,0,0,2.223.639c48.23,8.79,62.247-29,62.247-29-11.775,15.334-32.67,19.376-52.46,14.878-.733-.169-1.467-.4-2.2-.62q-1.342-.4-2.665-.851l-.291-.113c-.639-.216-1.255-.456-1.88-.7q-.255-.106-.517-.193c-.691-.277-1.363-.564-2.031-.86-.146-.047-.268-.113-.414-.169q-.852-.392-1.7-.8c-.174-.075-.329-.155-.5-.244-.442-.207-.884-.442-1.316-.668q-.445-.214-.879-.451c-.531-.282-1.062-.588-1.594-.879-.16-.113-.343-.207-.526-.31q-1.04-.616-2.059-1.264-.284-.176-.555-.371-.748-.461-1.467-.968c-.165-.108-.315-.226-.484-.343q-.7-.485-1.382-1c-.2-.16-.409-.31-.62-.47-.414-.324-.832-.635-1.246-.978l-.555-.442q-.8-.644-1.57-1.321a1.214,1.214,0,0,0-.174-.141l-1.631-1.485-.47-.442c-.385-.39-.78-.766-1.175-1.152l-.456-.47q-.745-.741-1.453-1.518l-.071-.075c-.5-.545-.982-1.1-1.471-1.664-.127-.146-.244-.3-.376-.456l-1.062-1.3Q21.881,70,21.1,68.939C10.119,53.953,6.147,33.27,14.933,16.3M38.14,14.086c-7.234,10.384-6.825,24.27-1.194,35.251a42.776,42.776,0,0,0,3.182,5.321,24.93,24.93,0,0,0,3.723,4.635c.5.573,1.048,1.128,1.617,1.688l.423.423q.8.776,1.645,1.528l.071.061q.951.83,1.946,1.608c.16.108.3.235.451.343.658.508,1.321,1,2.007,1.481l.071.042c.291.212.6.4.931.611.132.085.282.2.423.282.5.32.987.621,1.49.926.08.033.15.075.226.108.423.259.884.508,1.326.738.155.094.306.165.465.254.315.155.625.32.926.479l.15.066c.635.31,1.283.6,1.918.893.16.061.3.113.432.179.522.226,1.053.442,1.575.644.235.08.456.174.677.244.479.179.982.343,1.457.508l.658.212a15.907,15.907,0,0,0,2.106.606c37.23,6.172,45.851-22.5,45.851-22.5-7.761,11.169-22.78,16.49-38.786,12.335q-1.062-.275-2.106-.611c-.226-.061-.423-.132-.639-.2-.489-.169-.992-.334-1.467-.512l-.677-.254c-.526-.212-1.062-.409-1.575-.635-.16-.071-.306-.118-.428-.188-.658-.3-1.321-.588-1.96-.9l-.968-.5-.559-.282c-.432-.226-.832-.461-1.246-.705a2.915,2.915,0,0,1-.291-.16c-.5-.31-1.015-.611-1.49-.931-.16-.089-.306-.2-.456-.291l-.978-.639c-.677-.47-1.34-.978-2.007-1.467-.15-.136-.3-.249-.442-.371A44.7,44.7,0,0,1,41.4,32.739c-2.773-8.9-2.162-18.888,2.628-26.992m20.152-.691A21.7,21.7,0,0,0,62.439,26,29.553,29.553,0,0,0,79.38,41.816c.306.118.6.216.917.329l.414.127c.432.136.87.3,1.316.395,20.57,3.967,26.136-10.563,27.636-12.7-4.9,7.032-13.11,8.72-23.184,6.271a22.771,22.771,0,0,1-2.426-.752,29.821,29.821,0,0,1-2.9-1.194,30.653,30.653,0,0,1-5.077-3.1C67.05,24.357,61.461,11.308,67.346.679" transform="translate(-0.016 -0.679)" fill="#cccfdb"/>
</svg>
