<svg xmlns="http://www.w3.org/2000/svg" width="168.065" height="102.936" viewBox="0 0 168.065 102.936">
  <path id="Tech_Nodejs_Web" d="M83.061,107.156a3.47,3.47,0,0,1-1.6-.42l-5.042-2.994c-.762-.42-.394-.578-.131-.657a9.2,9.2,0,0,0,2.285-1.05.452.452,0,0,1,.368.026l3.886,2.311a.5.5,0,0,0,.473,0L98.476,95.6a.5.5,0,0,0,.236-.42V77.666a.445.445,0,0,0-.236-.42L83.3,68.5a.5.5,0,0,0-.473,0L67.646,77.246a.473.473,0,0,0-.236.42V95.181a.488.488,0,0,0,.236.394l4.149,2.39c2.258,1.129,3.65-.21,3.65-1.523V79.136a.443.443,0,0,1,.446-.446h1.917a.443.443,0,0,1,.446.446V96.442c0,3.02-1.628,4.727-4.49,4.727a6.509,6.509,0,0,1-3.493-.945l-3.992-2.285a3.244,3.244,0,0,1-1.6-2.757V77.666a3.156,3.156,0,0,1,1.6-2.757l15.178-8.771a3.258,3.258,0,0,1,3.177,0l15.178,8.771a3.244,3.244,0,0,1,1.6,2.757V95.181a3.156,3.156,0,0,1-1.6,2.757l-15.178,8.771a2.907,2.907,0,0,1-1.576.446ZM95.324,89.877c0-3.283-2.206-4.149-6.88-4.779-4.727-.63-5.2-.945-5.2-2.048,0-.919.394-2.127,3.887-2.127,3.125,0,4.28.683,4.753,2.784a.421.421,0,0,0,.42.341h1.97a.435.435,0,0,0,.315-.131.414.414,0,0,0,.105-.341c-.315-3.624-2.7-5.3-7.563-5.3-4.333,0-6.906,1.838-6.906,4.884,0,3.335,2.573,4.228,6.723,4.648,4.963.5,5.357,1.208,5.357,2.18,0,1.707-1.366,2.416-4.569,2.416-4.018,0-4.911-1-5.2-2.994a.432.432,0,0,0-.446-.368H80.12a.443.443,0,0,0-.446.446c0,2.547,1.392,5.593,8.036,5.593,4.858,0,7.615-1.891,7.615-5.2ZM109.636,76.72a2.915,2.915,0,1,1-2.915-2.915A2.891,2.891,0,0,1,109.636,76.72Zm-.473,0a2.455,2.455,0,1,0-2.468,2.468A2.5,2.5,0,0,0,109.164,76.72Zm-1.182,1.628H107.3c-.026-.158-.131-1-.131-1.024-.053-.184-.105-.289-.341-.289h-.578v1.313h-.63V75.066h1.129c.394,0,1.155,0,1.155.867a.77.77,0,0,1-.63.814c.446.026.473.315.551.735a3.66,3.66,0,0,0,.158.867Zm-.735-2.311c0-.446-.315-.446-.473-.446h-.525v.919h.5a.443.443,0,0,0,.5-.473ZM36.055,38.617a1.91,1.91,0,0,0-.972-1.681l-16.1-9.27a2.077,2.077,0,0,0-.893-.263h-.158a1.85,1.85,0,0,0-.893.263L.972,36.936A1.941,1.941,0,0,0,0,38.617L.026,63.564A1,1,0,0,0,.5,64.4a.925.925,0,0,0,.972,0l9.559-5.488A1.973,1.973,0,0,0,12,57.235V45.576a1.941,1.941,0,0,1,.972-1.681l4.07-2.337a1.866,1.866,0,0,1,.972-.263,1.8,1.8,0,0,1,.972.263l4.07,2.337a1.941,1.941,0,0,1,.972,1.681v11.66A1.941,1.941,0,0,0,25,58.916L34.558,64.4a.925.925,0,0,0,.972,0,.97.97,0,0,0,.473-.84Zm88.024-27.232V57.708a1.941,1.941,0,0,1-.972,1.681l-16.1,9.3a1.972,1.972,0,0,1-1.943,0l-16.1-9.3A1.941,1.941,0,0,1,88,57.708V39.116a1.941,1.941,0,0,1,.972-1.681l16.1-9.3a1.972,1.972,0,0,1,1.943,0l4.018,2.311a.688.688,0,0,0,1.024-.578V5.188a.966.966,0,0,1,1.444-.84L123.082,9.7a1.9,1.9,0,0,1,1,1.681ZM112,45.234a.5.5,0,0,0-.236-.42l-5.515-3.2a.556.556,0,0,0-.5,0l-5.515,3.2a.446.446,0,0,0-.236.42v6.381a.5.5,0,0,0,.236.42l5.515,3.177a.5.5,0,0,0,.473,0l5.515-3.177a.445.445,0,0,0,.236-.42V45.234Zm55.094-.184a1.941,1.941,0,0,0,.972-1.681v-4.49a1.941,1.941,0,0,0-.972-1.681L151.1,27.9a1.972,1.972,0,0,0-1.943,0l-16.1,9.3a1.941,1.941,0,0,0-.972,1.681V57.472a1.91,1.91,0,0,0,.972,1.681l15.992,9.112a1.922,1.922,0,0,0,1.917,0l9.664-5.383a.963.963,0,0,0,0-1.681l-16.2-9.3a.972.972,0,0,1-.5-.84v-5.83a.972.972,0,0,1,.5-.84l5.042-2.915a.925.925,0,0,1,.972,0l5.042,2.915a1.03,1.03,0,0,1,.5.84V49.8a.986.986,0,0,0,1.471.84l9.637-5.593Zm-20.3.919a.4.4,0,0,0-.184.315v3.571a.364.364,0,0,0,.184.315l3.1,1.786a.316.316,0,0,0,.368,0l3.1-1.786a.4.4,0,0,0,.184-.315V46.285a.364.364,0,0,0-.184-.315l-3.1-1.786a.316.316,0,0,0-.368,0ZM80.041,57.393V38.906a1.992,1.992,0,0,0-1.024-1.681L62.972,27.981a1.97,1.97,0,0,0-1.943,0L44.984,37.225a1.959,1.959,0,0,0-1.024,1.681V57.393a2.025,2.025,0,0,0,1.05,1.681l16.071,9.244a1.908,1.908,0,0,0,1.943,0l16.019-9.244a1.951,1.951,0,0,0,.945-1.234A2.313,2.313,0,0,0,80.041,57.393ZM60.53,24.594l-.21.131h.289ZM80.54,58.785l-.105-.184v.236Z" transform="translate(0 -4.22)" fill="#cccfdb"/>
</svg>
