<svg xmlns="http://www.w3.org/2000/svg" width="138.825" height="111.326" viewBox="0 0 138.825 111.326">
  <path id="Tech_GoogleCloud_Web" d="M70.512,3.581A54.05,54.05,0,0,0,17.1,43.453c.307-.116-.318.075,0,0C-5.317,58.209-5.589,90.365,15.669,106.74l.035-.04-.04.174a38.854,38.854,0,0,0,23.583,7.844H69.17l.174.174H99.376c38.68.307,54.235-49.775,22.183-71.438a54.171,54.171,0,0,0-16.318-26.331l-.249.249.035-.289a54.05,54.05,0,0,0-34.516-13.5ZM68.441,27.563a30.9,30.9,0,0,1,20.165,6.652A30,30,0,0,1,99.376,57.8v3c20.419-.4,20.419,30.438,0,30.039H69.337l-.046.052V90.66H39.247a14.982,14.982,0,0,1-6.172-1.33h.006A15.022,15.022,0,1,1,52.962,69.448L70.39,52.026A39.028,39.028,0,0,0,46.911,37.478c.1-.058.231-.15.312-.133a30,30,0,0,1,21.229-9.776Z" transform="translate(0 -3.566)" fill="#cccfdb"/>
</svg>
