<svg xmlns="http://www.w3.org/2000/svg" width="127.619" height="111.672" viewBox="0 0 127.619 111.672">
  <path id="Tech_React_Web" d="M104.239,38.44q-2.019-.673-4.038-1.271c.224-.922.424-1.844.623-2.767,3.066-14.856,1.047-26.795-5.758-30.733C88.511-.1,77.818,3.818,67,13.24c-1.072.922-2.119,1.894-3.116,2.866-.673-.648-1.371-1.3-2.069-1.919C50.474,4.117,39.108-.12,32.3,3.843c-6.53,3.789-8.475,15.03-5.733,29.088.274,1.4.573,2.767.922,4.163-1.6.449-3.166.947-4.636,1.471C9.546,43.176,0,50.454,0,57.981,0,65.758,10.17,73.56,24,78.3c1.122.374,2.243.748,3.39,1.072-.374,1.5-.7,2.966-1,4.487-2.617,13.834-.573,24.8,5.957,28.565,6.73,3.888,18.046-.1,29.063-9.746.872-.773,1.745-1.57,2.617-2.418,1.1,1.072,2.243,2.094,3.39,3.091,10.668,9.173,21.212,12.887,27.717,9.123,6.73-3.888,8.923-15.678,6.082-30.035q-.337-1.645-.748-3.365c.8-.224,1.57-.474,2.343-.723,14.382-4.761,24.8-12.463,24.8-20.364,0-7.552-9.821-14.881-23.38-19.542ZM70.514,17.278C79.787,9.2,88.436,6.036,92.374,8.3c4.212,2.418,5.833,12.189,3.19,25.025-.174.847-.349,1.67-.573,2.493A127.6,127.6,0,0,0,78.216,33.18,125.936,125.936,0,0,0,67.6,19.945c.972-.922,1.919-1.795,2.916-2.667ZM41.676,70.918c1.271,2.169,2.567,4.337,3.938,6.456A112.868,112.868,0,0,1,34.048,75.5a116.438,116.438,0,0,1,4.063-11.092c1.147,2.193,2.318,4.362,3.564,6.506ZM34.123,40.932c3.589-.8,7.4-1.446,11.366-1.944-1.321,2.069-2.617,4.187-3.839,6.331-1.221,2.119-2.418,4.287-3.539,6.481C36.541,48.086,35.22,44.447,34.123,40.932Zm6.83,17.174c1.645-3.44,3.44-6.8,5.334-10.12s3.938-6.53,6.082-9.7c3.739-.274,7.552-.424,11.441-.424s7.727.15,11.441.424Q78.428,43,81.307,47.936t5.409,10.07q-2.505,5.16-5.384,10.17c-1.894,3.315-3.913,6.53-6.032,9.721-3.714.274-7.577.4-11.491.4s-7.7-.125-11.366-.349q-3.253-4.748-6.132-9.721c-1.919-3.315-3.689-6.68-5.359-10.12ZM85.968,70.868c1.271-2.193,2.468-4.412,3.639-6.655A115.712,115.712,0,0,1,93.82,75.255,109.483,109.483,0,0,1,82.1,77.249C83.451,75.155,84.722,73.011,85.968,70.868ZM89.557,51.8c-1.171-2.193-2.368-4.387-3.614-6.53q-1.832-3.178-3.814-6.281a114.7,114.7,0,0,1,11.441,1.994A110.31,110.31,0,0,1,89.557,51.8Zm-25.7-28.041a109.454,109.454,0,0,1,7.378,8.923c-4.935-.224-9.9-.224-14.831,0C58.849,29.466,61.367,26.475,63.859,23.758ZM34.946,8.479C39.133,6.036,48.43,9.526,58.226,18.2c.623.548,1.246,1.147,1.894,1.745A126.636,126.636,0,0,0,49.427,33.18a131.389,131.389,0,0,0-16.75,2.592c-.324-1.271-.6-2.567-.872-3.863C29.462,19.845,31.007,10.747,34.946,8.479Zm-6.107,65.7c-1.047-.3-2.069-.623-3.091-.972-5.309-1.67-11.341-4.312-15.7-7.777a11.184,11.184,0,0,1-4.686-7.453c0-4.561,7.876-10.394,19.243-14.357,1.421-.5,2.866-.947,4.312-1.371A132.54,132.54,0,0,0,35.02,58.106,136.25,136.25,0,0,0,28.839,74.183ZM57.9,98.61a45.621,45.621,0,0,1-14.058,8.8,11.032,11.032,0,0,1-8.8.324c-3.963-2.293-5.608-11.092-3.365-22.931.274-1.4.573-2.792.922-4.163a124.694,124.694,0,0,0,16.924,2.443,131.54,131.54,0,0,0,10.768,13.31C59.5,97.164,58.7,97.912,57.9,98.61Zm6.107-6.057c-2.542-2.742-5.085-5.783-7.552-9.048,2.393.1,4.86.15,7.353.15,2.567,0,5.085-.05,7.577-.174a107.494,107.494,0,0,1-7.378,9.073Zm32.578,7.478a11.078,11.078,0,0,1-4.113,7.8c-3.963,2.293-12.413-.7-21.536-8.525-1.047-.9-2.094-1.869-3.166-2.866a123.3,123.3,0,0,0,10.519-13.36,122.874,122.874,0,0,0,17-2.617c.249,1.022.474,2.044.673,3.041a45.438,45.438,0,0,1,.623,16.526Zm4.536-26.795c-.7.224-1.4.449-2.119.648a126.621,126.621,0,0,0-6.356-15.9A125.988,125.988,0,0,0,98.755,42.3c1.3.374,2.542.773,3.739,1.172,11.615,3.988,19.766,9.92,19.766,14.457,0,4.885-8.7,11.192-21.137,15.3ZM63.809,69.5A11.416,11.416,0,1,0,52.393,58.081,11.414,11.414,0,0,0,63.809,69.5Z" transform="translate(0 -2.251)" fill="#cccfdb"/>
</svg>
