<svg xmlns="http://www.w3.org/2000/svg" width="1096.298" height="843" viewBox="0 0 1096.298 843">
  <g id="AboutUs_Background_Web" transform="translate(1.298 -3005)">
    <rect id="WEB_WE_STAND_FOR_background" data-name="WEB_WE STAND FOR_background" width="1096" height="843" transform="translate(-1 3005)" fill="#ebeffe"/>
    <g id="WEB_WE_STAND_FOR_graphics_2" data-name="WEB_WE STAND FOR_graphics 2" transform="translate(724.396 3810.733) rotate(180)" opacity="0.5">
      <path id="Path_14" data-name="Path 14" d="M4486,3505h358.965l114.419,91.207h244.309" transform="translate(-4478 -3501)" fill="none" stroke="#0162ff" stroke-width="1" opacity="0.5"/>
      <circle id="Ellipse_14" data-name="Ellipse 14" cx="4" cy="4" r="4" transform="translate(580.324 84)" fill="#0162ff" opacity="0.5"/>
      <circle id="Ellipse_15" data-name="Ellipse 15" cx="4" cy="4" r="4" transform="translate(599.718 84)" fill="#0162ff" opacity="0.5"/>
      <circle id="Ellipse_16" data-name="Ellipse 16" cx="4" cy="4" r="4" transform="translate(617.62 84)" fill="#0162ff" opacity="0.5"/>
      <g id="Ellipse_27" data-name="Ellipse 27" fill="none" stroke="#0162ff" stroke-width="1" opacity="0.5">
        <circle cx="4" cy="4" r="4" stroke="none"/>
        <circle cx="4" cy="4" r="3.5" fill="none"/>
      </g>
    </g>
    <g id="WEB_WE_STAND_FOR_graphics_1" data-name="WEB_WE STAND FOR_graphics 1" transform="translate(603.604 3042.267)" opacity="0.5">
      <path id="Path_14-2" data-name="Path 14" d="M4486,3505h241.777l77.066,91.8H4969.4" transform="translate(-4478 -3477)" fill="none" stroke="#0162ff" stroke-width="1" opacity="0.5"/>
      <path id="Path_16" data-name="Path 16" d="M4653,3480.629h133.39l55.641,55.641" transform="translate(-4478 -3477)" fill="none" stroke="#0162ff" stroke-width="1" opacity="0.5"/>
      <circle id="Ellipse_14-2" data-name="Ellipse 14" cx="4" cy="4" r="4" transform="translate(389 108)" fill="#0162ff" opacity="0.5"/>
      <circle id="Ellipse_15-2" data-name="Ellipse 15" cx="4" cy="4" r="4" transform="translate(402 108)" fill="#0162ff" opacity="0.5"/>
      <circle id="Ellipse_16-2" data-name="Ellipse 16" cx="4" cy="4" r="4" transform="translate(414 108)" fill="#0162ff" opacity="0.5"/>
      <g id="Ellipse_27-2" data-name="Ellipse 27" transform="translate(0 24)" fill="none" stroke="#0162ff" stroke-width="1" opacity="0.5">
        <circle cx="4" cy="4" r="4" stroke="none"/>
        <circle cx="4" cy="4" r="3.5" fill="none"/>
      </g>
      <circle id="Ellipse_28" data-name="Ellipse 28" cx="4" cy="4" r="4" transform="translate(167)" fill="#0162ff" opacity="0.5"/>
    </g>
  </g>
</svg>
