<svg xmlns="http://www.w3.org/2000/svg" xmlns:xlink="http://www.w3.org/1999/xlink" width="54.024" height="54.023" viewBox="0 0 54.024 54.023">
  <defs>
    <linearGradient id="linear-gradient" x1="0.5" x2="0.5" y2="1" gradientUnits="objectBoundingBox">
      <stop offset="0" stop-color="#0162ff"/>
      <stop offset="1" stop-color="#013180"/>
    </linearGradient>
  </defs>
  <path id="AboutUs_FocusIcon" d="M56.594,25.563H51.27A22,22,0,0,0,32.959,7.253V1.928H26.206V7.253A22,22,0,0,0,7.9,25.563H2.571v6.753H7.9A22,22,0,0,0,26.206,50.627v5.324h6.753V50.627A22,22,0,0,0,51.27,32.316h5.324V25.563Zm-12.2,0H39.135a10.157,10.157,0,0,0-6.176-6.176V14.124A15.244,15.244,0,0,1,44.4,25.563ZM29.582,32.316a3.376,3.376,0,1,1,3.376-3.376A3.376,3.376,0,0,1,29.582,32.316ZM26.206,14.124v5.263a10.156,10.156,0,0,0-6.176,6.176H14.767A15.244,15.244,0,0,1,26.206,14.124ZM14.767,32.316H20.03a10.156,10.156,0,0,0,6.176,6.176v5.263A15.244,15.244,0,0,1,14.767,32.316ZM32.959,43.755V38.492a10.157,10.157,0,0,0,6.176-6.176H44.4A15.244,15.244,0,0,1,32.959,43.755Z" transform="translate(-2.571 -1.928)" fill="url(#linear-gradient)"/>
</svg>
