<svg xmlns="http://www.w3.org/2000/svg" xmlns:xlink="http://www.w3.org/1999/xlink" width="60.198" height="48.155" viewBox="0 0 60.198 48.155">
  <defs>
    <linearGradient id="linear-gradient" x1="0.5" x2="0.5" y2="1" gradientUnits="objectBoundingBox">
      <stop offset="0" stop-color="#0162ff"/>
      <stop offset="1" stop-color="#013180"/>
    </linearGradient>
  </defs>
  <path id="AboutUs_ProfitIcon" d="M45.9,18.059H31.6v5.267a6.772,6.772,0,0,1-13.545,0V11.889l-6.1,3.668A6.007,6.007,0,0,0,9.03,20.711V25.16L1.505,29.506a3,3,0,0,0-1.1,4.11L7.93,46.653a3.011,3.011,0,0,0,4.11,1.1l9.726-5.615H34.615a6.025,6.025,0,0,0,6.02-6.02h1.5a3.007,3.007,0,0,0,3.01-3.01v-6.02H45.9a2.252,2.252,0,0,0,2.257-2.257V20.316A2.252,2.252,0,0,0,45.9,18.059Zm13.893-3.518L52.27,1.5A3.011,3.011,0,0,0,48.159.4L38.433,6.019H28.82a6.065,6.065,0,0,0-3.189.912L22.481,8.9a2.99,2.99,0,0,0-1.411,2.549v11.88a3.762,3.762,0,1,0,7.525,0V15.049H45.9a5.271,5.271,0,0,1,5.267,5.267V23l7.525-4.346a3.013,3.013,0,0,0,1.1-4.11Z" transform="translate(0.002 -0.002)" fill="url(#linear-gradient)"/>
</svg>
