<svg xmlns="http://www.w3.org/2000/svg" xmlns:xlink="http://www.w3.org/1999/xlink" width="42.561" height="41.265" viewBox="0 0 42.561 41.265">
  <defs>
    <linearGradient id="linear-gradient" x1="0.5" x2="0.5" y2="1" gradientUnits="objectBoundingBox">
      <stop offset="0" stop-color="#0162ff"/>
      <stop offset="1" stop-color="#013180"/>
    </linearGradient>
  </defs>
  <path id="AboutUs_CultureIcon" d="M.251,27.162c.358,3.4,2.69,5.947,5.45,5.947s5.092-2.545,5.45-5.947Zm29.7,13.756a1.2,1.2,0,0,1-.248.75.778.778,0,0,1-.6.312H13.218a1.081,1.081,0,0,1,0-2.112H29.1A.966.966,0,0,1,29.947,40.918Zm-17.488,1.6h17.4v3.055h-17.4ZM31.41,27.162c.355,3.4,2.688,5.953,5.449,5.954s5.093-2.549,5.447-5.954Zm10.6-2.126-4.463-7.643H39.93a1.208,1.208,0,0,0,1.048-1.323,1.2,1.2,0,0,0-1.048-1.31H27.291a6.826,6.826,0,0,0-4.8-5.008V5.629a1.206,1.206,0,0,0-1.06-1.319l-.1.014-.1-.014a.963.963,0,0,0-.75.385,1.491,1.491,0,0,0-.308.933V9.751a6.822,6.822,0,0,0-4.794,5.008H2.744A1.2,1.2,0,0,0,1.7,16.069a1.209,1.209,0,0,0,1.046,1.323H5.021L.558,25.034H0v1.412H11.4V25.034h-.56l-4.462-7.64H16.741a6.9,6.9,0,0,1,.062-.872,1.515,1.515,0,0,0,.061-.405,5.209,5.209,0,0,1,3.315-4.162V26.449h-.044c-.091,5.452-2.177,10.207-5.272,12.879h12.95c-3.1-2.672-5.18-7.427-5.277-12.879H22.5V11.954a5.208,5.208,0,0,1,3.315,4.162,1.627,1.627,0,0,0,.064.405,7.265,7.265,0,0,1,.055.872H36.18l-4.464,7.643H31.16v1.412h11.4V25.036Zm-36.759,0H1.685l3.562-6.1v6.1Zm.912,0v-6.1l3.562,6.1H6.159Zm30.245,0H32.841l3.564-6.1Zm.907,0v-6.1l3.567,6.1ZM6.759,12.921A1.2,1.2,0,0,1,5.7,14.2a1.2,1.2,0,0,1-1.058-1.278A1.212,1.212,0,0,1,5.7,11.6a1.211,1.211,0,0,1,1.056,1.319Zm31.158-.07a1.2,1.2,0,0,1-1.057,1.311.957.957,0,0,1-.749-.381,1.483,1.483,0,0,1-.309-.93,1.416,1.416,0,0,1,.516-1.183.884.884,0,0,1,1.082,0A1.416,1.416,0,0,1,37.917,12.852Z" transform="translate(0 -4.311)" fill="url(#linear-gradient)"/>
</svg>
