<svg xmlns="http://www.w3.org/2000/svg" width="1946.814" height="994.681" viewBox="0 0 1946.814 994.681">
  <g id="BackgroundWhyOSD" transform="translate(20.418 -4888.246)">
    <rect id="WEB_WHY_OSD_SERVICES_background" data-name="WEB_WHY OSD SERVICES_background" width="1922" height="994.681" transform="translate(0 4888.246)" fill="#f7f8ff"/>
    <g id="WHY_OSD_SERVICES_GRAPHICS" data-name="WHY OSD SERVICES_GRAPHICS" transform="translate(1343 4976.357)">
      <path id="Path_14" data-name="Path 14" d="M4486,3505h287.792l91.733,91.733H5061.4" transform="translate(-4478 -3477)" fill="none" stroke="#0162ff" stroke-width="1" opacity="0.3"/>
      <path id="Path_16" data-name="Path 16" d="M4653,3480.629h133.39l55.641,55.641" transform="translate(-4478 -3477)" fill="none" stroke="#0162ff" stroke-width="1" opacity="0.3"/>
      <circle id="Ellipse_14" data-name="Ellipse 14" cx="4" cy="4" r="4" transform="translate(389 189.735)" fill="#0162ff" opacity="0.3"/>
      <circle id="Ellipse_15" data-name="Ellipse 15" cx="4" cy="4" r="4" transform="translate(402 189.735)" fill="#0162ff" opacity="0.3"/>
      <circle id="Ellipse_16" data-name="Ellipse 16" cx="4" cy="4" r="4" transform="translate(414 189.735)" fill="#0162ff" opacity="0.3"/>
      <g id="Ellipse_27" data-name="Ellipse 27" transform="translate(0 24)" fill="none" stroke="#0162ff" stroke-width="1" opacity="0.3">
        <circle cx="4" cy="4" r="4" stroke="none"/>
        <circle cx="4" cy="4" r="3.5" fill="none"/>
      </g>
      <circle id="Ellipse_28" data-name="Ellipse 28" cx="4" cy="4" r="4" transform="translate(167)" fill="#0162ff" opacity="0.3"/>
    </g>
    <g id="graphics" transform="translate(0 1884.837)">
      <path id="Path_13" data-name="Path 13" d="M-64.889,36.244H124l42.2,48.17H772.841" transform="translate(44.471 3868.585)" fill="none" stroke="#0162ff" stroke-width="1" opacity="0.3"/>
      <g id="Ellipse_17" data-name="Ellipse 17" transform="translate(246.471 3939.667)" fill="none" stroke="#0162ff" stroke-width="1" opacity="0.3">
        <ellipse cx="4" cy="4" rx="4" ry="4" stroke="none"/>
        <ellipse cx="4" cy="4" rx="3.5" ry="3.5" fill="none"/>
      </g>
      <g id="Ellipse_18" data-name="Ellipse 18" transform="translate(233.471 3939.667)" fill="none" stroke="#0162ff" stroke-width="1" opacity="0.3">
        <ellipse cx="4" cy="4" rx="4" ry="4" stroke="none"/>
        <ellipse cx="4" cy="4" rx="3.5" ry="3.5" fill="none"/>
      </g>
      <ellipse id="Ellipse_19" data-name="Ellipse 19" cx="4" cy="4" rx="4" ry="4" transform="translate(221.471 3939.667)" fill="#0162ff" opacity="0.3"/>
    </g>
  </g>
</svg>
