<svg xmlns="http://www.w3.org/2000/svg" width="2096.757" height="648.869" viewBox="0 0 2096.757 648.869">
  <g id="ProcessPath" transform="translate(104.162 -5095.79)">
    <g id="PlexusBackground" transform="translate(-78 -322.883)">
      <g id="Group_80" data-name="Group 80" transform="translate(1633.745 12765.037) rotate(-177)" opacity="0.19">
        <path id="Path_59" data-name="Path 59" d="M2153.479,5809.471l-23.39-49.38,61.508-103.958,194.921-197.52-55.444,182.793-133.413,14.727,174.13,60.643-165.467,100.493Z" transform="translate(-687.109 1214.738)" fill="none" stroke="#707070" stroke-width="1"/>
        <path id="Path_60" data-name="Path 60" d="M2208.42,5634.507l-41.583,153.338-26.856,47.647-74.5-63.241,74.5-30.321,36.385-199.253Z" transform="translate(-703.065 1235.498)" fill="none" stroke="#707070" stroke-width="1"/>
        <path id="Path_61" data-name="Path 61" d="M2472.545,5754.059l46.781-92.7,175.863,103.092L2509.8,5948.113l-37.252-187.99-136.012,90.1,64.108-151.605-41.583-77.1-172.4-78.835-112.621,221.778-50.247-90.1,192.323-38.984" transform="translate(-713.359 1235.498)" fill="none" stroke="#707070" stroke-width="1"/>
        <path id="Path_62" data-name="Path 62" d="M2191.921,5752.757l101.359,56.31L2483,5770.949l167.2-51.112" transform="translate(-671.839 1279.249)" fill="none" stroke="#707070" stroke-width="1"/>
        <path id="Path_63" data-name="Path 63" d="M2421.35,5540.062V5667.41l6.93,147.274-11.262,135.145,147.274,65.84L2631,5888.321,2596.346,5765.3l-32.054,250.366-131.68-194.921,131.68-200.119-65.84-84.9Z" transform="translate(-616.25 1233.782)" fill="none" stroke="#707070" stroke-width="1"/>
        <path id="Path_64" data-name="Path 64" d="M2346.371,5466.505l83.167,32.054,22.524,69.305-159.4,79.7,131.68-140.344,111.755-80.567,119.552,99.627-119.552,36.385V5435.318l-79.7,127.349" transform="translate(-646.961 1206.846)" fill="none" stroke="#707070" stroke-width="1"/>
        <path id="Path_65" data-name="Path 65" d="M2180.11,5624.9l12.128,151.835,124.75-171.531,162,40.716-116.953,35.519,123.017,112.621" transform="translate(-674.755 1250.939)" fill="none" stroke="#707070" stroke-width="1"/>
        <g id="Ellipse_119" data-name="Ellipse 119" transform="translate(1498.525 6863.563)" fill="#fff" stroke="#707070" stroke-width="1">
          <circle cx="6.235" cy="6.235" r="6.235" stroke="none"/>
          <circle cx="6.235" cy="6.235" r="5.735" fill="none"/>
        </g>
        <g id="Ellipse_120" data-name="Ellipse 120" transform="translate(1467.351 6773.783)" fill="#fff" stroke="#707070" stroke-width="1">
          <circle cx="6.235" cy="6.235" r="6.235" stroke="none"/>
          <circle cx="6.235" cy="6.235" r="5.735" fill="none"/>
        </g>
        <g id="Ellipse_121" data-name="Ellipse 121" transform="translate(1638.184 6848.6)" fill="#fff" stroke="#707070" stroke-width="1">
          <circle cx="6.235" cy="6.235" r="6.235" stroke="none"/>
          <circle cx="6.235" cy="6.235" r="5.735" fill="none"/>
        </g>
        <g id="Ellipse_122" data-name="Ellipse 122" transform="translate(1514.736 7023.174)" fill="#fff" stroke="#707070" stroke-width="1">
          <circle cx="6.235" cy="6.235" r="6.235" stroke="none"/>
          <circle cx="6.235" cy="6.235" r="5.735" fill="none"/>
        </g>
        <g id="Ellipse_123" data-name="Ellipse 123" transform="translate(1461.117 7016.939)" fill="#fff" stroke="#707070" stroke-width="1">
          <circle cx="6.235" cy="6.235" r="6.235" stroke="none"/>
          <circle cx="6.235" cy="6.235" r="5.735" fill="none"/>
        </g>
        <g id="Ellipse_124" data-name="Ellipse 124" transform="translate(1433.683 6969.555)" fill="#fff" stroke="#707070" stroke-width="1">
          <circle cx="6.235" cy="6.235" r="6.235" stroke="none"/>
          <circle cx="6.235" cy="6.235" r="5.735" fill="none"/>
        </g>
        <g id="Ellipse_125" data-name="Ellipse 125" transform="translate(1356.372 6996.988)" fill="#fff" stroke="#707070" stroke-width="1">
          <circle cx="6.235" cy="6.235" r="6.235" stroke="none"/>
          <circle cx="6.235" cy="6.235" r="5.735" fill="none"/>
        </g>
        <g id="Ellipse_127" data-name="Ellipse 127" transform="translate(1304 6904.713)" fill="#fff" stroke="#707070" stroke-width="1">
          <circle cx="6.235" cy="6.235" r="6.235" stroke="none"/>
          <circle cx="6.235" cy="6.235" r="5.735" fill="none"/>
        </g>
        <g id="Ellipse_128" data-name="Ellipse 128" transform="translate(1553.391 6809.944)" fill="#fff" stroke="#707070" stroke-width="1">
          <circle cx="6.235" cy="6.235" r="6.235" stroke="none"/>
          <circle cx="6.235" cy="6.235" r="5.735" fill="none"/>
        </g>
        <g id="Ellipse_129" data-name="Ellipse 129" transform="translate(1680.581 6925.911)" fill="#fff" stroke="#707070" stroke-width="1">
          <circle cx="6.235" cy="6.235" r="6.235" stroke="none"/>
          <circle cx="6.235" cy="6.235" r="5.735" fill="none"/>
        </g>
        <g id="Ellipse_130" data-name="Ellipse 130" transform="translate(1616.986 7079.287)" fill="#fff" stroke="#707070" stroke-width="1">
          <circle cx="6.235" cy="6.235" r="6.235" stroke="none"/>
          <circle cx="6.235" cy="6.235" r="5.735" fill="none"/>
        </g>
        <g id="Ellipse_131" data-name="Ellipse 131" transform="translate(1599.529 6898.478)" fill="#fff" stroke="#707070" stroke-width="1">
          <circle cx="6.235" cy="6.235" r="6.235" stroke="none"/>
          <circle cx="6.235" cy="6.235" r="5.735" fill="none"/>
        </g>
        <g id="Ellipse_132" data-name="Ellipse 132" transform="translate(1797.795 6889.75)" fill="#fff" stroke="#707070" stroke-width="1">
          <circle cx="6.235" cy="6.235" r="6.235" stroke="none"/>
          <circle cx="6.235" cy="6.235" r="5.735" fill="none"/>
        </g>
        <g id="Ellipse_133" data-name="Ellipse 133" transform="translate(1797.795 6767.548)" fill="#fff" stroke="#707070" stroke-width="1">
          <circle cx="6.235" cy="6.235" r="6.235" stroke="none"/>
          <circle cx="6.235" cy="6.235" r="5.735" fill="none"/>
        </g>
        <g id="Ellipse_134" data-name="Ellipse 134" transform="translate(1776.597 6702.706)" fill="#fff" stroke="#707070" stroke-width="1">
          <circle cx="6.235" cy="6.235" r="6.235" stroke="none"/>
          <circle cx="6.235" cy="6.235" r="5.735" fill="none"/>
        </g>
        <g id="Ellipse_135" data-name="Ellipse 135" transform="translate(1693.05 6667.792)" fill="#fff" stroke="#707070" stroke-width="1">
          <circle cx="6.235" cy="6.235" r="6.235" stroke="none"/>
          <circle cx="6.235" cy="6.235" r="5.735" fill="none"/>
        </g>
        <g id="Ellipse_136" data-name="Ellipse 136" transform="translate(1882.588 6634.124)" fill="#fff" stroke="#707070" stroke-width="1">
          <circle cx="6.235" cy="6.235" r="6.235" stroke="none"/>
          <circle cx="6.235" cy="6.235" r="5.735" fill="none"/>
        </g>
        <g id="Ellipse_137" data-name="Ellipse 137" transform="translate(1880.094 6762.56)" fill="#fff" stroke="#707070" stroke-width="1">
          <circle cx="6.235" cy="6.235" r="6.235" stroke="none"/>
          <circle cx="6.235" cy="6.235" r="5.735" fill="none"/>
        </g>
        <g id="Ellipse_138" data-name="Ellipse 138" transform="translate(2002.296 6727.645)" fill="#fff" stroke="#707070" stroke-width="1">
          <circle cx="6.235" cy="6.235" r="6.235" stroke="none"/>
          <circle cx="6.235" cy="6.235" r="5.735" fill="none"/>
        </g>
        <g id="Ellipse_139" data-name="Ellipse 139" transform="translate(1939.948 6848.6)" fill="#fff" stroke="#707070" stroke-width="1">
          <circle cx="6.235" cy="6.235" r="6.235" stroke="none"/>
          <circle cx="6.235" cy="6.235" r="5.735" fill="none"/>
        </g>
        <g id="Ellipse_140" data-name="Ellipse 140" transform="translate(1749.163 6988.259)" fill="#fff" stroke="#707070" stroke-width="1">
          <circle cx="6.235" cy="6.235" r="6.235" stroke="none"/>
          <circle cx="6.235" cy="6.235" r="5.735" fill="none"/>
        </g>
        <g id="Ellipse_141" data-name="Ellipse 141" transform="translate(1807.77 7043.125)" fill="#fff" stroke="#707070" stroke-width="1">
          <circle cx="6.235" cy="6.235" r="6.235" stroke="none"/>
          <circle cx="6.235" cy="6.235" r="5.735" fill="none"/>
        </g>
        <g id="Ellipse_142" data-name="Ellipse 142" transform="translate(1972.369 6996.988)" fill="#fff" stroke="#707070" stroke-width="1">
          <circle cx="6.235" cy="6.235" r="6.235" stroke="none"/>
          <circle cx="6.235" cy="6.235" r="5.735" fill="none"/>
        </g>
        <g id="Ellipse_143" data-name="Ellipse 143" transform="translate(1856.402 7111.708)" fill="#fff" stroke="#707070" stroke-width="1">
          <circle cx="6.235" cy="6.235" r="6.235" stroke="none"/>
          <circle cx="6.235" cy="6.235" r="5.735" fill="none"/>
        </g>
        <g id="Ellipse_144" data-name="Ellipse 144" transform="translate(1791.56 7176.55)" fill="#fff" stroke="#707070" stroke-width="1">
          <circle cx="6.235" cy="6.235" r="6.235" stroke="none"/>
          <circle cx="6.235" cy="6.235" r="5.735" fill="none"/>
        </g>
        <g id="Ellipse_145" data-name="Ellipse 145" transform="translate(1939.948 7240.145)" fill="#fff" stroke="#707070" stroke-width="1">
          <circle cx="6.235" cy="6.235" r="6.235" stroke="none"/>
          <circle cx="6.235" cy="6.235" r="5.735" fill="none"/>
        </g>
        <g id="Ellipse_147" data-name="Ellipse 147" transform="translate(1881.341 6938.381)" fill="#fff" stroke="#707070" stroke-width="1">
          <circle cx="6.235" cy="6.235" r="6.235" stroke="none"/>
          <circle cx="6.235" cy="6.235" r="5.735" fill="none"/>
        </g>
        <g id="Ellipse_146" data-name="Ellipse 146" transform="translate(2008.53 7117.942)" fill="#fff" stroke="#707070" stroke-width="1">
          <circle cx="6.235" cy="6.235" r="6.235" stroke="none"/>
          <circle cx="6.235" cy="6.235" r="5.735" fill="none"/>
        </g>
        <g id="Ellipse_126" data-name="Ellipse 126" transform="translate(1409.991 6883.515)" fill="#fff" stroke="#707070" stroke-width="1">
          <circle cx="6.235" cy="6.235" r="6.235" stroke="none"/>
          <circle cx="6.235" cy="6.235" r="5.735" fill="none"/>
        </g>
      </g>
      <g id="Group_79" data-name="Group 79" transform="translate(-25.105 -1185.072)" opacity="0.19">
        <path id="Path_59-2" data-name="Path 59" d="M2153.479,5809.471l-23.39-49.38,61.508-103.958,194.921-197.52-55.444,182.793-133.413,14.727,174.13,60.643-165.467,100.493Z" transform="translate(-687.109 1214.738)" fill="none" stroke="#707070" stroke-width="1"/>
        <path id="Path_60-2" data-name="Path 60" d="M2208.42,5634.507l-41.583,153.338-26.856,47.647-74.5-63.241,74.5-30.321,36.385-199.253Z" transform="translate(-703.065 1235.498)" fill="none" stroke="#707070" stroke-width="1"/>
        <path id="Path_61-2" data-name="Path 61" d="M2472.545,5754.059l46.781-92.7,175.863,103.092L2509.8,5948.113l-37.252-187.99-136.012,90.1,64.108-151.605-41.583-77.1-172.4-78.835-112.621,221.778-50.247-90.1,192.323-38.984" transform="translate(-713.359 1235.498)" fill="none" stroke="#707070" stroke-width="1"/>
        <path id="Path_62-2" data-name="Path 62" d="M2191.921,5752.757l101.359,56.31L2483,5770.949l167.2-51.112" transform="translate(-671.839 1279.249)" fill="none" stroke="#707070" stroke-width="1"/>
        <path id="Path_63-2" data-name="Path 63" d="M2421.35,5540.062V5667.41l6.93,147.274-11.262,135.145,147.274,65.84L2631,5888.321,2596.346,5765.3l-32.054,250.366-131.68-194.921,131.68-200.119-65.84-84.9Z" transform="translate(-616.25 1233.782)" fill="none" stroke="#707070" stroke-width="1"/>
        <path id="Path_64-2" data-name="Path 64" d="M2346.371,5466.505l83.167,32.054,22.524,69.305-159.4,79.7,131.68-140.344,111.755-80.567,119.552,99.627-119.552,36.385V5435.318l-79.7,127.349" transform="translate(-646.961 1206.846)" fill="none" stroke="#707070" stroke-width="1"/>
        <path id="Path_65-2" data-name="Path 65" d="M2180.11,5624.9l12.128,151.835,124.75-171.531,162,40.716-116.953,35.519,123.017,112.621" transform="translate(-674.755 1250.939)" fill="none" stroke="#707070" stroke-width="1"/>
        <path id="Path_691" data-name="Path 691" d="M-6419.541,6121.376l-30.057-141.868,62.518-121.43,81.755,224.224L-6452.6,5976.5" transform="translate(8400 877.164)" fill="none" stroke="#707070" stroke-width="1"/>
        <g id="Ellipse_119-2" data-name="Ellipse 119" transform="translate(1498.525 6863.563)" fill="#fff" stroke="#707070" stroke-width="1">
          <circle cx="6.235" cy="6.235" r="6.235" stroke="none"/>
          <circle cx="6.235" cy="6.235" r="5.735" fill="none"/>
        </g>
        <g id="Ellipse_120-2" data-name="Ellipse 120" transform="translate(1467.351 6773.783)" fill="#fff" stroke="#707070" stroke-width="1">
          <circle cx="6.235" cy="6.235" r="6.235" stroke="none"/>
          <circle cx="6.235" cy="6.235" r="5.735" fill="none"/>
        </g>
        <g id="Ellipse_121-2" data-name="Ellipse 121" transform="translate(1638.184 6848.6)" fill="#fff" stroke="#707070" stroke-width="1">
          <circle cx="6.235" cy="6.235" r="6.235" stroke="none"/>
          <circle cx="6.235" cy="6.235" r="5.735" fill="none"/>
        </g>
        <g id="Ellipse_122-2" data-name="Ellipse 122" transform="translate(1514.736 7023.174)" fill="#fff" stroke="#707070" stroke-width="1">
          <circle cx="6.235" cy="6.235" r="6.235" stroke="none"/>
          <circle cx="6.235" cy="6.235" r="5.735" fill="none"/>
        </g>
        <g id="Ellipse_123-2" data-name="Ellipse 123" transform="translate(1461.117 7016.939)" fill="#fff" stroke="#707070" stroke-width="1">
          <circle cx="6.235" cy="6.235" r="6.235" stroke="none"/>
          <circle cx="6.235" cy="6.235" r="5.735" fill="none"/>
        </g>
        <g id="Ellipse_124-2" data-name="Ellipse 124" transform="translate(1433.683 6969.555)" fill="#fff" stroke="#707070" stroke-width="1">
          <circle cx="6.235" cy="6.235" r="6.235" stroke="none"/>
          <circle cx="6.235" cy="6.235" r="5.735" fill="none"/>
        </g>
        <g id="Ellipse_125-2" data-name="Ellipse 125" transform="translate(1356.372 6996.988)" fill="#fff" stroke="#707070" stroke-width="1">
          <circle cx="6.235" cy="6.235" r="6.235" stroke="none"/>
          <circle cx="6.235" cy="6.235" r="5.735" fill="none"/>
        </g>
        <g id="Ellipse_127-2" data-name="Ellipse 127" transform="translate(1304 6904.713)" fill="#fff" stroke="#707070" stroke-width="1">
          <circle cx="6.235" cy="6.235" r="6.235" stroke="none"/>
          <circle cx="6.235" cy="6.235" r="5.735" fill="none"/>
        </g>
        <g id="Ellipse_128-2" data-name="Ellipse 128" transform="translate(1553.391 6809.944)" fill="#fff" stroke="#707070" stroke-width="1">
          <circle cx="6.235" cy="6.235" r="6.235" stroke="none"/>
          <circle cx="6.235" cy="6.235" r="5.735" fill="none"/>
        </g>
        <g id="Ellipse_129-2" data-name="Ellipse 129" transform="translate(1680.581 6925.911)" fill="#fff" stroke="#707070" stroke-width="1">
          <circle cx="6.235" cy="6.235" r="6.235" stroke="none"/>
          <circle cx="6.235" cy="6.235" r="5.735" fill="none"/>
        </g>
        <g id="Ellipse_130-2" data-name="Ellipse 130" transform="translate(1616.986 7079.287)" fill="#fff" stroke="#707070" stroke-width="1">
          <circle cx="6.235" cy="6.235" r="6.235" stroke="none"/>
          <circle cx="6.235" cy="6.235" r="5.735" fill="none"/>
        </g>
        <g id="Ellipse_131-2" data-name="Ellipse 131" transform="translate(1599.529 6898.478)" fill="#fff" stroke="#707070" stroke-width="1">
          <circle cx="6.235" cy="6.235" r="6.235" stroke="none"/>
          <circle cx="6.235" cy="6.235" r="5.735" fill="none"/>
        </g>
        <g id="Ellipse_132-2" data-name="Ellipse 132" transform="translate(1797.795 6889.75)" fill="#fff" stroke="#707070" stroke-width="1">
          <circle cx="6.235" cy="6.235" r="6.235" stroke="none"/>
          <circle cx="6.235" cy="6.235" r="5.735" fill="none"/>
        </g>
        <g id="Ellipse_133-2" data-name="Ellipse 133" transform="translate(1797.795 6767.548)" fill="#fff" stroke="#707070" stroke-width="1">
          <circle cx="6.235" cy="6.235" r="6.235" stroke="none"/>
          <circle cx="6.235" cy="6.235" r="5.735" fill="none"/>
        </g>
        <g id="Ellipse_134-2" data-name="Ellipse 134" transform="translate(1776.597 6702.706)" fill="#fff" stroke="#707070" stroke-width="1">
          <circle cx="6.235" cy="6.235" r="6.235" stroke="none"/>
          <circle cx="6.235" cy="6.235" r="5.735" fill="none"/>
        </g>
        <g id="Ellipse_135-2" data-name="Ellipse 135" transform="translate(1693.05 6667.792)" fill="#fff" stroke="#707070" stroke-width="1">
          <circle cx="6.235" cy="6.235" r="6.235" stroke="none"/>
          <circle cx="6.235" cy="6.235" r="5.735" fill="none"/>
        </g>
        <g id="Ellipse_136-2" data-name="Ellipse 136" transform="translate(1882.588 6634.124)" fill="#fff" stroke="#707070" stroke-width="1">
          <circle cx="6.235" cy="6.235" r="6.235" stroke="none"/>
          <circle cx="6.235" cy="6.235" r="5.735" fill="none"/>
        </g>
        <g id="Ellipse_137-2" data-name="Ellipse 137" transform="translate(1880.094 6762.56)" fill="#fff" stroke="#707070" stroke-width="1">
          <circle cx="6.235" cy="6.235" r="6.235" stroke="none"/>
          <circle cx="6.235" cy="6.235" r="5.735" fill="none"/>
        </g>
        <g id="Ellipse_138-2" data-name="Ellipse 138" transform="translate(2002.296 6727.645)" fill="#fff" stroke="#707070" stroke-width="1">
          <circle cx="6.235" cy="6.235" r="6.235" stroke="none"/>
          <circle cx="6.235" cy="6.235" r="5.735" fill="none"/>
        </g>
        <g id="Ellipse_139-2" data-name="Ellipse 139" transform="translate(1939.948 6848.6)" fill="#fff" stroke="#707070" stroke-width="1">
          <circle cx="6.235" cy="6.235" r="6.235" stroke="none"/>
          <circle cx="6.235" cy="6.235" r="5.735" fill="none"/>
        </g>
        <g id="Ellipse_140-2" data-name="Ellipse 140" transform="translate(1749.163 6988.259)" fill="#fff" stroke="#707070" stroke-width="1">
          <circle cx="6.235" cy="6.235" r="6.235" stroke="none"/>
          <circle cx="6.235" cy="6.235" r="5.735" fill="none"/>
        </g>
        <g id="Ellipse_141-2" data-name="Ellipse 141" transform="translate(1807.77 7043.125)" fill="#fff" stroke="#707070" stroke-width="1">
          <circle cx="6.235" cy="6.235" r="6.235" stroke="none"/>
          <circle cx="6.235" cy="6.235" r="5.735" fill="none"/>
        </g>
        <g id="Ellipse_142-2" data-name="Ellipse 142" transform="translate(1972.369 6996.988)" fill="#fff" stroke="#707070" stroke-width="1">
          <circle cx="6.235" cy="6.235" r="6.235" stroke="none"/>
          <circle cx="6.235" cy="6.235" r="5.735" fill="none"/>
        </g>
        <g id="Ellipse_143-2" data-name="Ellipse 143" transform="translate(1856.402 7111.708)" fill="#fff" stroke="#707070" stroke-width="1">
          <circle cx="6.235" cy="6.235" r="6.235" stroke="none"/>
          <circle cx="6.235" cy="6.235" r="5.735" fill="none"/>
        </g>
        <g id="Ellipse_144-2" data-name="Ellipse 144" transform="translate(1791.56 7176.55)" fill="#fff" stroke="#707070" stroke-width="1">
          <circle cx="6.235" cy="6.235" r="6.235" stroke="none"/>
          <circle cx="6.235" cy="6.235" r="5.735" fill="none"/>
        </g>
        <g id="Ellipse_145-2" data-name="Ellipse 145" transform="translate(1939.948 7240.145)" fill="#fff" stroke="#707070" stroke-width="1">
          <circle cx="6.235" cy="6.235" r="6.235" stroke="none"/>
          <circle cx="6.235" cy="6.235" r="5.735" fill="none"/>
        </g>
        <g id="Ellipse_147-2" data-name="Ellipse 147" transform="translate(1881.341 6938.381)" fill="#fff" stroke="#707070" stroke-width="1">
          <circle cx="6.235" cy="6.235" r="6.235" stroke="none"/>
          <circle cx="6.235" cy="6.235" r="5.735" fill="none"/>
        </g>
        <g id="Ellipse_146-2" data-name="Ellipse 146" transform="translate(2008.53 7117.942)" fill="#fff" stroke="#707070" stroke-width="1">
          <circle cx="6.235" cy="6.235" r="6.235" stroke="none"/>
          <circle cx="6.235" cy="6.235" r="5.735" fill="none"/>
        </g>
        <g id="Ellipse_126-2" data-name="Ellipse 126" transform="translate(1409.991 6883.515)" fill="#fff" stroke="#707070" stroke-width="1">
          <circle cx="6.235" cy="6.235" r="6.235" stroke="none"/>
          <circle cx="6.235" cy="6.235" r="5.735" fill="none"/>
        </g>
      </g>
    </g>
    <g id="PROCESS_WE_FOLLOW_PATH" data-name="PROCESS WE FOLLOW_PATH">
      <g id="Ellipse_148" data-name="Ellipse 148" transform="translate(109.394 5453.104)" fill="#707070" stroke="#707070" stroke-width="1">
        <circle cx="6.5" cy="6.5" r="6.5" stroke="none"/>
        <circle cx="6.5" cy="6.5" r="6" fill="none"/>
      </g>
      <g id="Ellipse_149" data-name="Ellipse 149" transform="translate(226.394 5423.104)" fill="#707070" stroke="#707070" stroke-width="1">
        <circle cx="6.5" cy="6.5" r="6.5" stroke="none"/>
        <circle cx="6.5" cy="6.5" r="6" fill="none"/>
      </g>
      <g id="Ellipse_150" data-name="Ellipse 150" transform="translate(405.394 5495.104)" fill="#707070" stroke="#707070" stroke-width="1">
        <circle cx="6.5" cy="6.5" r="6.5" stroke="none"/>
        <circle cx="6.5" cy="6.5" r="6" fill="none"/>
      </g>
      <g id="Ellipse_151" data-name="Ellipse 151" transform="translate(750.394 5445.104)" fill="#707070" stroke="#707070" stroke-width="1">
        <circle cx="6.5" cy="6.5" r="6.5" stroke="none"/>
        <circle cx="6.5" cy="6.5" r="6" fill="none"/>
      </g>
      <g id="Ellipse_152" data-name="Ellipse 152" transform="translate(1015.394 5550.104)" fill="#707070" stroke="#707070" stroke-width="1">
        <circle cx="6.5" cy="6.5" r="6.5" stroke="none"/>
        <circle cx="6.5" cy="6.5" r="6" fill="none"/>
      </g>
      <g id="Ellipse_153" data-name="Ellipse 153" transform="translate(1136.394 5376.104)" fill="#707070" stroke="#707070" stroke-width="1">
        <circle cx="6.5" cy="6.5" r="6.5" stroke="none"/>
        <circle cx="6.5" cy="6.5" r="6" fill="none"/>
      </g>
      <g id="Ellipse_154" data-name="Ellipse 154" transform="translate(1409.394 5514.104)" fill="#707070" stroke="#707070" stroke-width="1">
        <circle cx="6.5" cy="6.5" r="6.5" stroke="none"/>
        <circle cx="6.5" cy="6.5" r="6" fill="none"/>
      </g>
      <g id="Ellipse_155" data-name="Ellipse 155" transform="translate(1536.394 5339.104)" fill="#707070" stroke="#707070" stroke-width="1">
        <circle cx="6.5" cy="6.5" r="6.5" stroke="none"/>
        <circle cx="6.5" cy="6.5" r="6" fill="none"/>
      </g>
      <g id="Ellipse_157" data-name="Ellipse 157" transform="translate(1835.394 5339.104)" fill="#707070" stroke="#707070" stroke-width="1">
        <circle cx="6.5" cy="6.5" r="6.5" stroke="none"/>
        <circle cx="6.5" cy="6.5" r="6" fill="none"/>
      </g>
      <path id="process_we_follow_path-2" data-name="process we follow path" d="M862.7,5715.635l120.317-28.781,177.217,71.918,340.844-51.618,270.871,106.732,117.071-174.615,275.891,137.43,125.541-174.312h302.563" transform="translate(-747.605 -256.896)" fill="none" stroke="#707070" stroke-width="1"/>
    </g>
    <text id="Contact" transform="translate(230 5351.103)" fill="#0162ff" font-size="22" font-family="Montserrat-Regular, Montserrat"><tspan x="0" y="0">Contact</tspan></text>
    <text id="Investigation" transform="translate(382 5568.103)" fill="#0162ff" font-size="22" font-family="Montserrat-Regular, Montserrat"><tspan x="0" y="0">Investigation</tspan></text>
    <text id="Selection" transform="translate(745 5396.103)" fill="#0162ff" font-size="22" font-family="Montserrat-Regular, Montserrat"><tspan x="0" y="0">Selection</tspan></text>
    <text id="Agreement" transform="translate(1120.198 5332.103)" fill="#0162ff" font-size="22" font-family="Montserrat-Regular, Montserrat"><tspan x="0" y="0">Agreement</tspan></text>
    <text id="Quotation" transform="translate(1005 5619.103)" fill="#0162ff" font-size="22" font-family="Montserrat-Regular, Montserrat"><tspan x="0" y="0">Quotation</tspan></text>
    <text id="Action" transform="translate(1418 5584.103)" fill="#0162ff" font-size="22" font-family="Montserrat-Regular, Montserrat"><tspan x="0" y="0">Action</tspan></text>
    <text id="Support" transform="translate(1538 5291.103)" fill="#0162ff" font-size="22" font-family="Montserrat-Regular, Montserrat"><tspan x="0" y="0">Support</tspan></text>
    <g id="WEB_PROCESS_WE_FOLLOW__2" data-name="WEB_PROCESS WE FOLLOW_ 2" transform="translate(350 5458.162)">
      <rect id="Rectangle_276" data-name="Rectangle 276" width="207" height="155" rx="16" transform="translate(0 121.94)" fill="#f7f8ff" opacity="0"/>
      <text id="WE_Investigate_the_requirements_find_the_best_fit_Send_you_suggestions_with_our_recommendation" data-name="WE Investigate the requirements, find the best fit &amp; Send you suggestions with our recommendation" transform="translate(9 132.94)" fill="#0c0227" font-size="18" font-family="Montserrat-Regular, Montserrat" opacity="0"><tspan x="-85" y="17">WE Investigate the </tspan><tspan x="-84" y="39">requirements, find </tspan><tspan x="-83" y="61">the best fit &amp; Send </tspan><tspan x="-73" y="83">you suggestions </tspan><tspan x="-37" y="105">with our </tspan><tspan x="-79" y="127">recommendation</tspan></text>
      <path id="Path_22" data-name="Path 22" d="M4093.244,2445.818l37.277,20.71V2508.1l-37.277,21.1h0l-37.492-21.1v-41.572Z" transform="translate(-3991.854 -2444.318)" fill="#fff" stroke="#03dee7" stroke-width="1"/>
      <circle id="Ellipse_29" data-name="Ellipse 29" cx="2" cy="2" r="2" transform="translate(136.398 61)" fill="#0c0227"/>
      <circle id="Ellipse_31" data-name="Ellipse 31" cx="2" cy="2" r="2" transform="translate(136.398 20)" fill="#0c0227"/>
      <circle id="Ellipse_30" data-name="Ellipse 30" cx="2" cy="2" r="2" transform="translate(99.398)" fill="#0c0227"/>
      <path id="Path_23" data-name="Path 23" d="M4078.252,2445.818l22.371,12.428V2483.2l-22.371,12.663h0l-22.5-12.663v-24.949Z" transform="translate(-3976.79 -2427.647)" fill="#0c0227"/>
      <text id="_2" data-name="2" transform="translate(101.283 55)" fill="#f7f8ff" font-size="36" font-family="Montserrat-Regular, Montserrat"><tspan x="-10" y="0">2</tspan></text>
    </g>
    <g id="WEB_PROCESS_WE_FOLLOW_3" data-name="WEB_PROCESS WE FOLLOW_3" transform="translate(692.835 5408.633)">
      <rect id="Rectangle_276-2" data-name="Rectangle 276" width="207" height="132" rx="16" transform="translate(0 96.94)" fill="#f7f8ff" opacity="0"/>
      <text id="YOU_choose_from_them_and_you_can_send_them_tests_or_interview_them_remotely" data-name="YOU choose from them and you can send them tests or interview them remotely" transform="translate(9 107.94)" fill="#0c0227" font-size="18" font-family="Montserrat-Regular, Montserrat" opacity="0"><tspan x="-79" y="17">YOU choose from </tspan><tspan x="-82" y="39">them and you can </tspan><tspan x="-84" y="61">send them tests or </tspan><tspan x="-68" y="83">interview them </tspan><tspan x="-40" y="105">remotely</tspan></text>
      <path id="Path_22-2" data-name="Path 22" d="M4093.244,2445.818l37.277,20.71V2508.1l-37.277,21.1h0l-37.492-21.1v-41.572Z" transform="translate(-3991.854 -2444.318)" fill="#fff" stroke="#03dee7" stroke-width="1"/>
      <circle id="Ellipse_29-2" data-name="Ellipse 29" cx="2" cy="2" r="2" transform="translate(136.398 61)" fill="#0c0227"/>
      <circle id="Ellipse_31-2" data-name="Ellipse 31" cx="2" cy="2" r="2" transform="translate(136.398 20)" fill="#0c0227"/>
      <circle id="Ellipse_30-2" data-name="Ellipse 30" cx="2" cy="2" r="2" transform="translate(99.398)" fill="#0c0227"/>
      <path id="Path_23-2" data-name="Path 23" d="M4078.252,2445.818l22.371,12.428V2483.2l-22.371,12.663h0l-22.5-12.663v-24.949Z" transform="translate(-3976.79 -2427.647)" fill="#0c0227"/>
      <text id="_3" data-name="3" transform="translate(101.283 55)" fill="#f7f8ff" font-size="36" font-family="Montserrat-Regular, Montserrat"><tspan x="-10" y="0">3</tspan></text>
    </g>
    <g id="WEB_PROCESS_WE_FOLLOW__1" data-name="WEB_PROCESS WE FOLLOW_ 1" transform="translate(234.899 5325.633)">
      <rect id="Rectangle_276-3" data-name="Rectangle 276" width="207" height="65" rx="16" transform="translate(101.101)" fill="#f7f8ff" opacity="0"/>
      <text id="YOU_Tell_us_your_need" data-name="YOU Tell us your need" transform="translate(110.101 11)" fill="#0c0227" font-size="18" font-family="Montserrat-Regular, Montserrat" opacity="0"><tspan x="-72" y="17">YOU Tell us your </tspan><tspan x="-23" y="39">need</tspan></text>
      <path id="Path_22-3" data-name="Path 22" d="M4093.244,2445.818l37.277,20.71V2508.1l-37.277,21.1h0l-37.492-21.1v-41.572Z" transform="translate(-4055.753 -2383.318)" fill="#fff" stroke="#03dee7" stroke-width="1"/>
      <circle id="Ellipse_29-3" data-name="Ellipse 29" cx="2" cy="2" r="2" transform="translate(72.5 122)" fill="#0c0227"/>
      <circle id="Ellipse_31-3" data-name="Ellipse 31" cx="2" cy="2" r="2" transform="translate(72.5 81)" fill="#0c0227"/>
      <circle id="Ellipse_30-3" data-name="Ellipse 30" cx="2" cy="2" r="2" transform="translate(35.5 61)" fill="#0c0227"/>
      <path id="Path_23-3" data-name="Path 23" d="M4078.252,2445.818l22.371,12.428V2483.2l-22.371,12.663h0l-22.5-12.663v-24.949Z" transform="translate(-4040.688 -2366.647)" fill="#0c0227"/>
      <text id="_1" data-name="1" transform="translate(37.384 116)" fill="#f7f8ff" font-size="36" font-family="Montserrat-Regular, Montserrat"><tspan x="-6" y="0">1</tspan></text>
    </g>
    <g id="WEB_PROCESS_WE_FOLLOW_4" data-name="WEB_PROCESS WE FOLLOW_4" transform="translate(958 5513.103)">
      <rect id="Rectangle_276-4" data-name="Rectangle 276" width="207" height="64" rx="16" transform="translate(0 114.94)" fill="#f7f8ff" opacity="0"/>
      <text id="You_WE_have_work_agreement" data-name="You &amp; WE have work agreement" transform="translate(9 118.94)" fill="#0c0227" font-size="18" font-family="Montserrat-Regular, Montserrat" opacity="0"><tspan x="-92" y="17">You &amp; WE have work </tspan><tspan x="-50" y="39">agreement</tspan></text>
      <path id="Path_22-4" data-name="Path 22" d="M4093.244,2445.818l37.277,20.71V2508.1l-37.277,21.1h0l-37.492-21.1v-41.572Z" transform="translate(-3991.854 -2444.318)" fill="#fff" stroke="#03dee7" stroke-width="1"/>
      <circle id="Ellipse_29-4" data-name="Ellipse 29" cx="2" cy="2" r="2" transform="translate(136.398 61)" fill="#0c0227"/>
      <circle id="Ellipse_31-4" data-name="Ellipse 31" cx="2" cy="2" r="2" transform="translate(136.398 20)" fill="#0c0227"/>
      <circle id="Ellipse_30-4" data-name="Ellipse 30" cx="2" cy="2" r="2" transform="translate(99.398)" fill="#0c0227"/>
      <path id="Path_23-4" data-name="Path 23" d="M4078.252,2445.818l22.371,12.428V2483.2l-22.371,12.663h0l-22.5-12.663v-24.949Z" transform="translate(-3976.79 -2427.647)" fill="#0c0227"/>
      <text id="_4" data-name="4" transform="translate(101.283 55)" fill="#f7f8ff" font-size="36" font-family="Montserrat-Regular, Montserrat"><tspan x="-11" y="0">4</tspan></text>
    </g>
    <g id="WEB_PROCESS_WE_FOLLOW_5" data-name="WEB_PROCESS WE FOLLOW_5" transform="translate(1079.698 5339.133)">
      <rect id="Rectangle_276-5" data-name="Rectangle 276" width="207" height="64" rx="16" transform="translate(0 114.94)" fill="#f7f8ff" opacity="0"/>
      <text id="You_WE_have_work_agreement-2" data-name="You &amp; WE have work agreement" transform="translate(9 118.94)" fill="#0c0227" font-size="18" font-family="Montserrat-Regular, Montserrat" opacity="0"><tspan x="-92" y="17">You &amp; WE have work </tspan><tspan x="-50" y="39">agreement</tspan></text>
      <path id="Path_22-5" data-name="Path 22" d="M4093.244,2445.818l37.277,20.71V2508.1l-37.277,21.1h0l-37.492-21.1v-41.572Z" transform="translate(-3991.854 -2444.318)" fill="#fff" stroke="#03dee7" stroke-width="1"/>
      <circle id="Ellipse_29-5" data-name="Ellipse 29" cx="2" cy="2" r="2" transform="translate(136.398 61)" fill="#0c0227"/>
      <circle id="Ellipse_31-5" data-name="Ellipse 31" cx="2" cy="2" r="2" transform="translate(136.398 20)" fill="#0c0227"/>
      <circle id="Ellipse_30-5" data-name="Ellipse 30" cx="2" cy="2" r="2" transform="translate(99.398)" fill="#0c0227"/>
      <path id="Path_23-5" data-name="Path 23" d="M4078.252,2445.818l22.371,12.428V2483.2l-22.371,12.663h0l-22.5-12.663v-24.949Z" transform="translate(-3976.79 -2427.647)" fill="#0c0227"/>
      <text id="_5" data-name="5" transform="translate(101.283 55)" fill="#f7f8ff" font-size="36" font-family="Montserrat-Regular, Montserrat"><tspan x="-10" y="0">5</tspan></text>
    </g>
    <g id="WEB_PROCESS_WE_FOLLOW_6" data-name="WEB_PROCESS WE FOLLOW_6" transform="translate(1352.5 5477.633)">
      <rect id="Rectangle_276-6" data-name="Rectangle 276" width="207" height="44" rx="16" transform="translate(0 114.94)" fill="#f7f8ff" opacity="0"/>
      <text id="YOU_start_working" data-name="YOU start working" transform="translate(9 118.94)" fill="#0c0227" font-size="18" font-family="Montserrat-Regular, Montserrat" opacity="0"><tspan x="-82" y="17">YOU start working</tspan></text>
      <path id="Path_22-6" data-name="Path 22" d="M4093.244,2445.818l37.277,20.71V2508.1l-37.277,21.1h0l-37.492-21.1v-41.572Z" transform="translate(-3991.854 -2444.318)" fill="#fff" stroke="#03dee7" stroke-width="1"/>
      <circle id="Ellipse_29-6" data-name="Ellipse 29" cx="2" cy="2" r="2" transform="translate(136.398 61)" fill="#0c0227"/>
      <circle id="Ellipse_31-6" data-name="Ellipse 31" cx="2" cy="2" r="2" transform="translate(136.398 20)" fill="#0c0227"/>
      <circle id="Ellipse_30-6" data-name="Ellipse 30" cx="2" cy="2" r="2" transform="translate(99.398)" fill="#0c0227"/>
      <path id="Path_23-6" data-name="Path 23" d="M4078.252,2445.818l22.371,12.428V2483.2l-22.371,12.663h0l-22.5-12.663v-24.949Z" transform="translate(-3976.79 -2427.647)" fill="#0c0227"/>
      <text id="_6" data-name="6" transform="translate(101.283 55)" fill="#f7f8ff" font-size="36" font-family="Montserrat-Regular, Montserrat"><tspan x="-10" y="0">6</tspan></text>
    </g>
    <g id="WEB_PROCESS_WE_FOLLOW_7" data-name="WEB_PROCESS WE FOLLOW_7" transform="translate(1479 5303.133)">
      <rect id="Rectangle_276-7" data-name="Rectangle 276" width="207" height="44" rx="16" transform="translate(0 114.94)" fill="#f7f8ff" opacity="0"/>
      <text id="WE_support_YOU_" data-name="WE support YOU!" transform="translate(9 118.94)" fill="#0c0227" font-size="18" font-family="Montserrat-Regular, Montserrat" opacity="0"><tspan x="-78" y="17">WE support YOU!</tspan></text>
      <path id="Path_22-7" data-name="Path 22" d="M4093.244,2445.818l37.277,20.71V2508.1l-37.277,21.1h0l-37.492-21.1v-41.572Z" transform="translate(-3991.854 -2444.318)" fill="#fff" stroke="#03dee7" stroke-width="1"/>
      <circle id="Ellipse_29-7" data-name="Ellipse 29" cx="2" cy="2" r="2" transform="translate(136.398 61)" fill="#0c0227"/>
      <circle id="Ellipse_31-7" data-name="Ellipse 31" cx="2" cy="2" r="2" transform="translate(136.398 20)" fill="#0c0227"/>
      <circle id="Ellipse_30-7" data-name="Ellipse 30" cx="2" cy="2" r="2" transform="translate(99.398)" fill="#0c0227"/>
      <path id="Path_23-7" data-name="Path 23" d="M4078.252,2445.818l22.371,12.428V2483.2l-22.371,12.663h0l-22.5-12.663v-24.949Z" transform="translate(-3976.79 -2427.647)" fill="#0c0227"/>
      <text id="_7" data-name="7" transform="translate(101.283 55)" fill="#f7f8ff" font-size="36" font-family="Montserrat-Regular, Montserrat"><tspan x="-10" y="0">7</tspan></text>
    </g>
  </g>
</svg>
